<?xml version="1.0" encoding="UTF-8" standalone="no"?>
<!DOCTYPE svg PUBLIC "-//W3C//DTD SVG 1.1//EN" "http://www.w3.org/Graphics/SVG/1.1/DTD/svg11.dtd">
<!-- Generated by Microsoft Visio, SVG Export CSP-initiated-logout.svg CSP-initiated -->
<svg xmlns="http://www.w3.org/2000/svg" xmlns:xlink="http://www.w3.org/1999/xlink" xmlns:ev="http://www.w3.org/2001/xml-events"
		xmlns:v="http://schemas.microsoft.com/visio/2003/SVGExtensions/" width="11in" height="8.5in" viewBox="0 0 792 612"
		xml:space="preserve" color-interpolation-filters="sRGB" class="st21">
	<v:documentProperties v:langID="1033" v:viewMarkup="false">
		<v:userDefs>
			<v:ud v:nameU="msvNoAutoConnect" v:val="VT0(1):26"/>
		</v:userDefs>
	</v:documentProperties>

	<style type="text/css">
	<![CDATA[
		.st1 {fill:#ffffff;stroke:#000000;stroke-linecap:round;stroke-linejoin:round;stroke-width:0.24}
		.st2 {fill:#000000;font-family:Calibri;font-size:0.833336em}
		.st3 {stroke:#000000;stroke-dasharray:3.6,2.16;stroke-linecap:round;stroke-linejoin:round;stroke-width:0.24}
		.st4 {fill:none;stroke:none;stroke-linecap:round;stroke-linejoin:round;stroke-width:0.75}
		.st5 {fill:#000000;font-family:Calibri;font-size:1.00001em}
		.st6 {fill:#ffffff}
		.st7 {stroke:#000000;stroke-linecap:round;stroke-linejoin:round;stroke-width:0.24}
		.st8 {fill:#000000;font-family:Calibri;font-size:0.666664em;font-weight:bold}
		.st9 {font-size:1em}
		.st10 {fill:#ffffff;stroke:#000000;stroke-linecap:round;stroke-linejoin:round;stroke-width:0.75}
		.st11 {fill:#000000}
		.st12 {marker-end:url(#mrkr13-160);stroke:#000000;stroke-linecap:round;stroke-linejoin:round;stroke-width:0.24}
		.st13 {fill:#000000;fill-opacity:1;stroke:#000000;stroke-opacity:1;stroke-width:0.08695652173913}
		.st14 {fill:#ffffff;stroke:none;stroke-linecap:butt;stroke-width:7.2}
		.st15 {fill:#000000;font-family:Calibri;font-size:0.666664em}
		.st16 {marker-end:url(#mrkr12-168);stroke:#000000;stroke-dasharray:1.68,1.2;stroke-linecap:round;stroke-linejoin:round;stroke-width:0.24}
		.st17 {marker-end:url(#mrkr12-168);stroke:#000000;stroke-linecap:round;stroke-linejoin:round;stroke-width:0.24}
		.st18 {fill:#ffffff;stroke:none;stroke-linecap:butt}
		.st19 {fill:#ffffff;visibility:hidden}
		.st20 {stroke:#000000;stroke-dasharray:5.25,3.75;stroke-linecap:round;stroke-linejoin:round;stroke-width:0.75}
		.st21 {fill:none;fill-rule:evenodd;font-size:12px;overflow:visible;stroke-linecap:square;stroke-miterlimit:3}
	]]>
	</style>

	<defs id="Markers">
		<g id="lend13">
			<path d="M 3 1 L 0 0 L 3 -1 L 3 1 " style="stroke:none"/>
		</g>
		<marker id="mrkr13-160" class="st13" v:arrowType="13" v:arrowSize="2" v:setback="34.5" refX="-34.5" orient="auto"
				markerUnits="strokeWidth" overflow="visible">
			<use xlink:href="#lend13" transform="scale(-11.5,-11.5) "/>
		</marker>
		<g id="lend12">
			<path d="M 3 1 L 0 0 L 3 -1 " style="stroke-linecap:round;stroke-linejoin:round;fill:none"/>
		</g>
		<marker id="mrkr12-168" class="st13" v:arrowType="12" v:arrowSize="2" orient="auto" markerUnits="strokeWidth"
				overflow="visible">
			<use xlink:href="#lend12" transform="scale(-11.5,-11.5) "/>
		</marker>
	</defs>
	<g v:mID="4" v:index="2" v:groupContext="foregroundPage">
		<title>CSP-initiated</title>
		<v:pageProperties v:drawingScale="1" v:pageScale="1" v:drawingUnits="19" v:shadowOffsetX="9" v:shadowOffsetY="-9"/>
		<v:layer v:name="Connector" v:index="0"/>
		<g id="shape1-1" v:mID="1" v:groupContext="shape" transform="translate(384.9,-436.114)">
			<title>Rectangle</title>
			<desc>Sign in Canada Acceptance Platform</desc>
			<v:userDefs>
				<v:ud v:nameU="visVersion" v:val="VT0(15):26"/>
			</v:userDefs>
			<v:textBlock v:margins="rect(4,4,4,4)" v:verticalAlign="0"/>
			<v:textRect cx="110.1" cy="576" width="220.21" height="72"/>
			<rect x="0" y="540" width="220.2" height="72" class="st1"/>
			<text x="37.04" y="553" class="st2" v:langID="1033"><v:paragraph v:horizAlign="1"/><v:tabList/>Sign in Canada Acceptance Platform</text>		</g>
		<g id="shape2-4" v:mID="2" v:groupContext="shape" transform="translate(81.375,788.28) scale(1,-1)">
			<title>Lifeline</title>
			<path d="M0 612 L0 198" class="st3"/>
		</g>
		<g id="shape3-7" v:mID="3" v:groupContext="shape" transform="translate(18.375,-504.12)">
			<title>Sheet.3</title>
			<desc>SAML CSP-Initiated Logout</desc>
			<v:textBlock v:margins="rect(4,4,4,4)"/>
			<v:textRect cx="101.25" cy="602" width="202.5" height="20"/>
			<rect x="0" y="592" width="202.5" height="20" class="st4"/>
			<text x="36.48" y="605.6" class="st5" v:langID="1033"><v:paragraph v:horizAlign="1"/><v:tabList/>SAML CSP-Initiated Logout</text>		</g>
		<g id="group4-10" transform="translate(162.495,-444.72)" v:mID="4" v:groupContext="group">
			<v:userDefs>
				<v:ud v:nameU="F" v:val="VT0(0):26"/>
				<v:ud v:nameU="Format" v:val="VT0(0):26"/>
				<v:ud v:nameU="ResizeIcon" v:val="VT0(0):26"/>
			</v:userDefs>
			<title>Component</title>
			<g id="shape5-11" v:mID="5" v:groupContext="shape">
				<title>Sheet.5</title>
				<path d="M72 612 L0 612 L72 612 Z" class="st6"/>
			</g>
			<g id="shape6-14" v:mID="6" v:groupContext="shape">
				<title>Sheet.6</title>
				<path d="M72 612 L0 612 L72 612 Z" class="st6"/>
			</g>
			<g id="shape7-17" v:mID="7" v:groupContext="shape">
				<title>Sheet.7</title>
				<path d="M72 612 L0 612 L72 612 Z" class="st6"/>
			</g>
			<g id="shape8-20" v:mID="8" v:groupContext="shape" transform="translate(72,0)">
				<title>Sheet.8</title>
				<path d="M0 612 L0 576 L0 612 Z" class="st6"/>
				<path d="" class="st7"/>
			</g>
			<g id="shape9-23" v:mID="9" v:groupContext="shape">
				<title>Sheet.9</title>
				<desc>SAML Relying Party</desc>
				<v:textBlock v:margins="rect(4,4,4,4)"/>
				<v:textRect cx="36" cy="594" width="72" height="36"/>
				<path d="M72 612 L72 576 L0 576 L0 612 L72 612 ZM72 612 L72 576 L0 576 L72 576 L72 612 Z" class="st6"/>
				<path d="M72 612 L72 576" class="st7"/>
				<path d="M0 612 L0 576" class="st7"/>
				<path d="M0 612 L72 612" class="st7"/>
				<path d="M72 612 L72 576" class="st7"/>
				<path d="M0 576 L72 576" class="st7"/>
				<text x="26.5" y="591.6" class="st8" v:langID="1033"><v:paragraph v:horizAlign="1"/><v:tabList/>SAML<v:newlineChar/><tspan
							x="14.12" dy="1.2em" class="st9">Relying Party</tspan></text>			</g>
			<g id="shape10-32" v:mID="10" v:groupContext="shape" transform="translate(58.5,-22.5)">
				<title>Sheet.10</title>
				<path d="M0 612 L9 612 L9 603 L0 603 L0 604.8 L1.8 604.8 L1.8 606.6 L0 606.6 L0 608.4 L1.8 608.4 L1.8 610.2 L0 610.2
							 L0 612 ZM-1.8 610.2 L1.8 610.2 L1.8 608.4 L-1.8 608.4 L-1.8 610.2 ZM-1.8 606.6 L1.8 606.6 L1.8 604.8
							 L-1.8 604.8 L-1.8 606.6 Z" class="st1"/>
			</g>
		</g>
		<g id="group11-34" transform="translate(630.975,-444.72)" v:mID="11" v:groupContext="group">
			<v:userDefs>
				<v:ud v:nameU="F" v:val="VT0(0):26"/>
				<v:ud v:nameU="Format" v:val="VT0(0):26"/>
				<v:ud v:nameU="ResizeIcon" v:val="VT0(0):26"/>
			</v:userDefs>
			<title>Component.26</title>
			<g id="shape12-35" v:mID="12" v:groupContext="shape">
				<title>Sheet.12</title>
				<path d="M72 612 L0 612 L72 612 Z" class="st6"/>
			</g>
			<g id="shape13-38" v:mID="13" v:groupContext="shape">
				<title>Sheet.13</title>
				<path d="M72 612 L0 612 L72 612 Z" class="st6"/>
			</g>
			<g id="shape14-41" v:mID="14" v:groupContext="shape">
				<title>Sheet.14</title>
				<path d="M72 612 L0 612 L72 612 Z" class="st6"/>
			</g>
			<g id="shape15-44" v:mID="15" v:groupContext="shape" transform="translate(72,0)">
				<title>Sheet.15</title>
				<path d="M0 612 L0 576 L0 612 Z" class="st6"/>
				<path d="" class="st7"/>
			</g>
			<g id="shape16-47" v:mID="16" v:groupContext="shape">
				<title>Sheet.16</title>
				<desc>Other OIDC RP(s)</desc>
				<v:textBlock v:margins="rect(4,4,4,4)"/>
				<v:textRect cx="36" cy="594" width="72" height="36"/>
				<path d="M72 612 L72 576 L0 576 L0 612 L72 612 ZM72 612 L72 576 L0 576 L72 576 L72 612 Z" class="st6"/>
				<path d="M72 612 L72 576" class="st7"/>
				<path d="M0 612 L0 576" class="st7"/>
				<path d="M0 612 L72 612" class="st7"/>
				<path d="M72 612 L72 576" class="st7"/>
				<path d="M0 576 L72 576" class="st7"/>
				<text x="7.64" y="596.4" class="st8" v:langID="1033"><v:paragraph v:horizAlign="1"/><v:tabList/>Other OIDC RP(s)</text>			</g>
			<g id="shape17-55" v:mID="17" v:groupContext="shape" transform="translate(58.5,-22.5)">
				<title>Sheet.17</title>
				<path d="M0 612 L9 612 L9 603 L0 603 L0 604.8 L1.8 604.8 L1.8 606.6 L0 606.6 L0 608.4 L1.8 608.4 L1.8 610.2 L0 610.2
							 L0 612 ZM-1.8 610.2 L1.8 610.2 L1.8 608.4 L-1.8 608.4 L-1.8 610.2 ZM-1.8 606.6 L1.8 606.6 L1.8 604.8
							 L-1.8 604.8 L-1.8 606.6 Z" class="st1"/>
			</g>
		</g>
		<g id="group18-57" transform="translate(513.855,-444.72)" v:mID="18" v:groupContext="group">
			<v:userDefs>
				<v:ud v:nameU="F" v:val="VT0(0):26"/>
				<v:ud v:nameU="Format" v:val="VT0(0):26"/>
				<v:ud v:nameU="ResizeIcon" v:val="VT0(0):26"/>
			</v:userDefs>
			<title>Component.33</title>
			<g id="shape19-58" v:mID="19" v:groupContext="shape">
				<title>Sheet.19</title>
				<path d="M72 612 L0 612 L72 612 Z" class="st6"/>
			</g>
			<g id="shape20-61" v:mID="20" v:groupContext="shape">
				<title>Sheet.20</title>
				<path d="M72 612 L0 612 L72 612 Z" class="st6"/>
			</g>
			<g id="shape21-64" v:mID="21" v:groupContext="shape">
				<title>Sheet.21</title>
				<path d="M72 612 L0 612 L72 612 Z" class="st6"/>
			</g>
			<g id="shape22-67" v:mID="22" v:groupContext="shape" transform="translate(72,0)">
				<title>Sheet.22</title>
				<path d="M0 612 L0 576 L0 612 Z" class="st6"/>
				<path d="" class="st7"/>
			</g>
			<g id="shape23-70" v:mID="23" v:groupContext="shape">
				<title>Sheet.23</title>
				<desc>OpenID Provider</desc>
				<v:textBlock v:margins="rect(4,4,4,4)"/>
				<v:textRect cx="36" cy="594" width="72" height="36"/>
				<path d="M72 612 L72 576 L0 576 L0 612 L72 612 ZM72 612 L72 576 L0 576 L72 576 L72 612 Z" class="st6"/>
				<path d="M72 612 L72 576" class="st7"/>
				<path d="M0 612 L0 576" class="st7"/>
				<path d="M0 612 L72 612" class="st7"/>
				<path d="M72 612 L72 576" class="st7"/>
				<path d="M0 576 L72 576" class="st7"/>
				<text x="8.34" y="596.4" class="st8" v:langID="1033"><v:paragraph v:horizAlign="1"/><v:tabList/>OpenID Provider</text>			</g>
			<g id="shape24-78" v:mID="24" v:groupContext="shape" transform="translate(58.5,-22.5)">
				<title>Sheet.24</title>
				<path d="M0 612 L9 612 L9 603 L0 603 L0 604.8 L1.8 604.8 L1.8 606.6 L0 606.6 L0 608.4 L1.8 608.4 L1.8 610.2 L0 610.2
							 L0 612 ZM-1.8 610.2 L1.8 610.2 L1.8 608.4 L-1.8 608.4 L-1.8 610.2 ZM-1.8 606.6 L1.8 606.6 L1.8 604.8
							 L-1.8 604.8 L-1.8 606.6 Z" class="st1"/>
			</g>
		</g>
		<g id="group25-80" transform="translate(279.615,-444.72)" v:mID="25" v:groupContext="group">
			<v:userDefs>
				<v:ud v:nameU="F" v:val="VT0(0):26"/>
				<v:ud v:nameU="Format" v:val="VT0(0):26"/>
				<v:ud v:nameU="ResizeIcon" v:val="VT0(0):26"/>
			</v:userDefs>
			<title>Component.40</title>
			<g id="shape26-81" v:mID="26" v:groupContext="shape">
				<title>Sheet.26</title>
				<path d="M72 612 L0 612 L72 612 Z" class="st6"/>
			</g>
			<g id="shape27-84" v:mID="27" v:groupContext="shape">
				<title>Sheet.27</title>
				<path d="M72 612 L0 612 L72 612 Z" class="st6"/>
			</g>
			<g id="shape28-87" v:mID="28" v:groupContext="shape">
				<title>Sheet.28</title>
				<path d="M72 612 L0 612 L72 612 Z" class="st6"/>
			</g>
			<g id="shape29-90" v:mID="29" v:groupContext="shape" transform="translate(72,0)">
				<title>Sheet.29</title>
				<path d="M0 612 L0 576 L0 612 Z" class="st6"/>
				<path d="" class="st7"/>
			</g>
			<g id="shape30-93" v:mID="30" v:groupContext="shape">
				<title>Sheet.30</title>
				<desc>SAML IDP (CSP)</desc>
				<v:textBlock v:margins="rect(4,4,4,4)"/>
				<v:textRect cx="36" cy="594" width="72" height="36"/>
				<path d="M72 612 L72 576 L0 576 L0 612 L72 612 ZM72 612 L72 576 L0 576 L72 576 L72 612 Z" class="st6"/>
				<path d="M72 612 L72 576" class="st7"/>
				<path d="M0 612 L0 576" class="st7"/>
				<path d="M0 612 L72 612" class="st7"/>
				<path d="M72 612 L72 576" class="st7"/>
				<path d="M0 576 L72 576" class="st7"/>
				<text x="19.88" y="591.6" class="st8" v:langID="1033"><v:paragraph v:horizAlign="1"/><v:tabList/>SAML IDP<v:newlineChar/><tspan
							x="27.37" dy="1.2em" class="st9">(CSP)</tspan></text>			</g>
			<g id="shape31-102" v:mID="31" v:groupContext="shape" transform="translate(58.5,-22.5)">
				<title>Sheet.31</title>
				<path d="M0 612 L9 612 L9 603 L0 603 L0 604.8 L1.8 604.8 L1.8 606.6 L0 606.6 L0 608.4 L1.8 608.4 L1.8 610.2 L0 610.2
							 L0 612 ZM-1.8 610.2 L1.8 610.2 L1.8 608.4 L-1.8 608.4 L-1.8 610.2 ZM-1.8 606.6 L1.8 606.6 L1.8 604.8
							 L-1.8 604.8 L-1.8 606.6 Z" class="st1"/>
			</g>
		</g>
		<g id="shape32-104" v:mID="32" v:groupContext="shape" transform="translate(198.495,779.28) scale(1,-1)">
			<title>Lifeline.47</title>
			<path d="M0 612 L0 185.4" class="st3"/>
		</g>
		<g id="shape33-107" v:mID="33" v:groupContext="shape" transform="translate(549.855,779.28) scale(1,-1)">
			<title>Lifeline.48</title>
			<path d="M0 612 L0 185.4" class="st3"/>
		</g>
		<g id="shape34-110" v:mID="34" v:groupContext="shape" transform="translate(666.975,779.28) scale(1,-1)">
			<title>Lifeline.49</title>
			<path d="M0 612 L0 185.4" class="st3"/>
		</g>
		<g id="shape35-113" v:mID="35" v:groupContext="shape" transform="translate(315.615,779.28) scale(1,-1)">
			<title>Lifeline.50</title>
			<path d="M0 612 L0 185.4" class="st3"/>
		</g>
		<g id="group36-116" transform="translate(396.735,-444.72)" v:mID="36" v:groupContext="group">
			<v:userDefs>
				<v:ud v:nameU="F" v:val="VT0(0):26"/>
				<v:ud v:nameU="Format" v:val="VT0(0):26"/>
				<v:ud v:nameU="ResizeIcon" v:val="VT0(0):26"/>
			</v:userDefs>
			<title>Component.51</title>
			<g id="shape37-117" v:mID="37" v:groupContext="shape">
				<title>Sheet.37</title>
				<path d="M72 612 L0 612 L72 612 Z" class="st6"/>
			</g>
			<g id="shape38-120" v:mID="38" v:groupContext="shape">
				<title>Sheet.38</title>
				<path d="M72 612 L0 612 L72 612 Z" class="st6"/>
			</g>
			<g id="shape39-123" v:mID="39" v:groupContext="shape">
				<title>Sheet.39</title>
				<path d="M72 612 L0 612 L72 612 Z" class="st6"/>
			</g>
			<g id="shape40-126" v:mID="40" v:groupContext="shape" transform="translate(72,0)">
				<title>Sheet.40</title>
				<path d="M0 612 L0 576 L0 612 Z" class="st6"/>
				<path d="" class="st7"/>
			</g>
			<g id="shape41-129" v:mID="41" v:groupContext="shape">
				<title>Sheet.41</title>
				<desc>Acceptance Framework</desc>
				<v:textBlock v:margins="rect(4,4,4,4)"/>
				<v:textRect cx="36" cy="594" width="72" height="36"/>
				<path d="M72 612 L72 576 L0 576 L0 612 L72 612 ZM72 612 L72 576 L0 576 L72 576 L72 612 Z" class="st6"/>
				<path d="M72 612 L72 576" class="st7"/>
				<path d="M0 612 L0 576" class="st7"/>
				<path d="M0 612 L72 612" class="st7"/>
				<path d="M72 612 L72 576" class="st7"/>
				<path d="M0 576 L72 576" class="st7"/>
				<text x="16.87" y="591.6" class="st8" v:langID="1033"><v:paragraph v:horizAlign="1"/><v:tabList/>Acceptance <tspan
							x="17.03" dy="1.2em" class="st9">Framework</tspan></text>			</g>
			<g id="shape42-138" v:mID="42" v:groupContext="shape" transform="translate(58.5,-22.5)">
				<title>Sheet.42</title>
				<path d="M0 612 L9 612 L9 603 L0 603 L0 604.8 L1.8 604.8 L1.8 606.6 L0 606.6 L0 608.4 L1.8 608.4 L1.8 610.2 L0 610.2
							 L0 612 ZM-1.8 610.2 L1.8 610.2 L1.8 608.4 L-1.8 608.4 L-1.8 610.2 ZM-1.8 606.6 L1.8 606.6 L1.8 604.8
							 L-1.8 604.8 L-1.8 606.6 Z" class="st1"/>
			</g>
		</g>
		<g id="shape43-140" v:mID="43" v:groupContext="shape" transform="translate(432.735,779.28) scale(1,-1)">
			<title>Lifeline.58</title>
			<path d="M0 612 L0 185.4" class="st3"/>
		</g>
		<g id="group44-143" transform="translate(45.375,-435.72)" v:mID="44" v:groupContext="group">
			<title>Sheet.44</title>
			<g id="group45-144" v:mID="45" v:groupContext="group">
				<v:custProps>
					<v:cp v:nameU="AssetNumber" v:lbl="Asset Number" v:prompt="" v:type="0" v:format="" v:sortKey="Asset"
							v:invis="false" v:ask="false" v:langID="1033" v:cal="0"/>
					<v:cp v:nameU="SerialNumber" v:lbl="Serial Number" v:prompt="" v:type="0" v:format="" v:sortKey="Asset"
							v:invis="false" v:ask="false" v:langID="1033" v:cal="0"/>
					<v:cp v:nameU="Location" v:lbl="Location" v:prompt="" v:type="0" v:format="" v:sortKey="Asset" v:invis="false"
							v:ask="false" v:langID="1033" v:cal="0"/>
					<v:cp v:nameU="Building" v:lbl="Building" v:prompt="" v:type="0" v:format="" v:sortKey="Asset" v:invis="false"
							v:ask="false" v:langID="1033" v:cal="0"/>
					<v:cp v:nameU="Room" v:lbl="Room" v:prompt="" v:type="0" v:format="" v:sortKey="Asset" v:invis="false"
							v:ask="false" v:langID="1033" v:cal="0"/>
					<v:cp v:nameU="Manufacturer" v:lbl="Manufacturer" v:prompt="" v:type="0" v:format="" v:sortKey="Equipment"
							v:invis="false" v:ask="false" v:langID="1033" v:cal="0"/>
					<v:cp v:nameU="ProductNumber" v:lbl="Product Number" v:prompt="" v:type="0" v:format="" v:sortKey="Equipment"
							v:invis="false" v:ask="false" v:langID="1033" v:cal="0"/>
					<v:cp v:nameU="PartNumber" v:lbl="Part Number" v:prompt="" v:type="0" v:format="" v:sortKey="Equipment"
							v:invis="false" v:ask="false" v:langID="1033" v:cal="0"/>
					<v:cp v:nameU="ProductDescription" v:lbl="Product Description" v:prompt="" v:type="0" v:format=""
							v:sortKey="Equipment" v:invis="false" v:ask="false" v:langID="1033" v:cal="0"/>
					<v:cp v:nameU="NetworkName" v:lbl="Network Name" v:prompt="" v:type="0" v:format="" v:sortKey="Network"
							v:invis="false" v:ask="false" v:langID="1033" v:cal="0"/>
					<v:cp v:nameU="IPAddress" v:lbl="IP Address" v:prompt="" v:type="0" v:format="" v:sortKey="Network"
							v:invis="false" v:ask="false" v:langID="1033" v:cal="0"/>
					<v:cp v:nameU="SubnetMask" v:lbl="Subnet Mask" v:prompt="" v:type="0" v:format="" v:sortKey="Network"
							v:invis="false" v:ask="false" v:langID="1033" v:cal="0"/>
					<v:cp v:nameU="AdminInterface" v:lbl="Administrative Interface" v:prompt="" v:type="0" v:format=""
							v:sortKey="Network" v:invis="false" v:ask="false" v:langID="1033" v:cal="0"/>
					<v:cp v:nameU="NumberofPorts" v:lbl="Number of Ports" v:prompt="" v:type="0" v:format="" v:sortKey="Network"
							v:invis="false" v:ask="false" v:langID="1033" v:cal="0"/>
					<v:cp v:nameU="CommunityString" v:lbl="Community String" v:prompt="" v:type="0" v:format="" v:sortKey="Network"
							v:invis="false" v:ask="false" v:langID="1033" v:cal="0"/>
					<v:cp v:nameU="NetworkDescription" v:lbl="Network Description" v:prompt="" v:type="0" v:format=""
							v:sortKey="Network" v:invis="false" v:ask="false" v:langID="1033" v:cal="0"/>
					<v:cp v:nameU="MACAddress" v:lbl="MAC Address" v:prompt="" v:type="0" v:format="" v:sortKey="Network"
							v:invis="false" v:ask="false" v:langID="1033" v:cal="0"/>
					<v:cp v:nameU="CPU" v:lbl="CPU" v:prompt="" v:type="0" v:format="" v:sortKey="Workstation" v:invis="false"
							v:ask="false" v:langID="1033" v:cal="0"/>
					<v:cp v:nameU="Memory" v:lbl="Memory" v:prompt="" v:type="0" v:format="" v:sortKey="Workstation"
							v:invis="false" v:ask="false" v:langID="1033" v:cal="0"/>
					<v:cp v:nameU="OperatingSystem" v:lbl="Operating System" v:prompt="" v:type="0" v:format=""
							v:sortKey="Workstation" v:invis="false" v:ask="false" v:langID="1033" v:cal="0"/>
					<v:cp v:nameU="HardDriveSize" v:lbl="Hard Drive Capacity" v:prompt="" v:type="0" v:format=""
							v:sortKey="Workstation" v:invis="false" v:ask="false" v:langID="1033" v:cal="0"/>
					<v:cp v:nameU="ShapeClass" v:lbl="ShapeClass" v:prompt="" v:type="0" v:format="" v:sortKey="" v:invis="true"
							v:ask="false" v:langID="1033" v:cal="0" v:val="VT4(Equipment)"/>
					<v:cp v:nameU="ShapeType" v:lbl="ShapeType" v:prompt="" v:type="0" v:format="" v:sortKey="" v:invis="true"
							v:ask="false" v:langID="1033" v:cal="0" v:val="VT4(Computer)"/>
					<v:cp v:nameU="SubShapeType" v:lbl="SubShapeType" v:prompt="" v:type="0" v:format="" v:sortKey=""
							v:invis="true" v:ask="false" v:langID="1033" v:cal="0" v:val="VT4(Laptop)"/>
				</v:custProps>
				<v:userDefs>
					<v:ud v:nameU="visVersion" v:prompt="" v:val="VT0(15):26"/>
					<v:ud v:nameU="ShapeClass" v:prompt="" v:val="VT0(5):26"/>
					<v:ud v:nameU="SolSH" v:prompt="" v:val="VT15({BF0433D9-CD73-4EB5-8390-8653BE590246}):41"/>
					<v:ud v:nameU="visLegendShape" v:prompt="" v:val="VT0(2):26"/>
				</v:userDefs>
				<title>Laptop</title>
				<g id="shape46-145" v:mID="46" v:groupContext="shape" transform="translate(0,-6.66644)">
					<title>Sheet.46</title>
					<path d="M0 612 L72 612 L72 604.45 L65.83 594.03 L5.81 594.03 L0 604.45 L0 612 ZM66.03 592.32 L66.03 559.36 C66.03
								 556.03 63.33 553.33 60.01 553.33 L11.83 553.33 C8.5 553.33 5.8 556.03 5.8 559.36 L5.8 592.32 L66.03
								 592.32 Z" class="st10"/>
				</g>
				<g id="shape47-147" v:mID="47" v:groupContext="shape" transform="translate(7.08404,-15.0632)">
					<title>Sheet.47</title>
					<v:userDefs>
						<v:ud v:nameU="SurroundingRegionColor" v:prompt="" v:val="VT0(1):26"/>
					</v:userDefs>
					<path d="M2.91 606.8 L0 612 L57.7 612 L54.8 606.8 L2.91 606.8 Z" class="st11"/>
				</g>
				<g id="shape48-150" v:mID="48" v:groupContext="shape" transform="translate(11.6087,-32.6198)">
					<title>Sheet.48</title>
					<v:userDefs>
						<v:ud v:nameU="SurroundingRegionColor" v:prompt="" v:val="VT0(1):26"/>
					</v:userDefs>
					<rect x="0" y="584.923" width="48.7834" height="27.0773" class="st10"/>
				</g>
			</g>
			<g id="shape49-152" v:mID="49" v:groupContext="shape" transform="translate(13.2,-40.2)">
				<title>Sheet.49</title>
				<desc>Browser</desc>
				<v:textBlock v:margins="rect(4,4,4,4)"/>
				<v:textRect cx="22.5" cy="605.25" width="45" height="13.5"/>
				<rect x="0" y="598.5" width="45" height="13.5" class="st4"/>
				<text x="8.67" y="607.65" class="st8" v:langID="1033"><v:paragraph v:horizAlign="1"/><v:tabList/>Browser</text>			</g>
		</g>
		<g id="shape92-155" v:mID="92" v:groupContext="shape" transform="translate(81.375,-426.72)">
			<title>Message (seq.diag)</title>
			<desc>Logout</desc>
			<v:userDefs>
				<v:ud v:nameU="State" v:val="VT0(1):26"/>
				<v:ud v:nameU="LostFound" v:val="VT0(0):26"/>
				<v:ud v:nameU="State" v:prompt="" v:val="VT0(2):26"/>
			</v:userDefs>
			<v:textBlock v:margins="rect(4,4,4,4)"/>
			<v:textRect cx="58.56" cy="603" width="32.27" height="17.6036"/>
			<path d="M0 612 L108.84 612" class="st12"/>
			<rect v:rectContext="textBkgnd" x="46.4296" y="598.2" width="22.4489" height="9.59985" class="st14"/>
			<text x="46.43" y="605.4" class="st15" v:langID="1033"><v:paragraph/><v:tabList/>Logout</text>		</g>
		<g id="shape93-163" v:mID="93" v:groupContext="shape" transform="translate(198.495,815.28) rotate(180)">
			<title>Message (seq.diag).71</title>
			<desc>HTTP redirect with SAML Logout Request</desc>
			<v:userDefs>
				<v:ud v:nameU="State" v:val="VT0(1):26"/>
				<v:ud v:nameU="LostFound" v:val="VT0(0):26"/>
				<v:ud v:nameU="State" v:prompt="" v:val="VT0(5):26"/>
			</v:userDefs>
			<v:textBlock v:margins="rect(4,4,4,4)"/>
			<v:textRect cx="45.495" cy="620.655" width="143.33" height="17.6036" transform="rotate(180)"/>
			<path d="M0 612 L117.12 612" class="st16"/>
			<rect v:rectContext="textBkgnd" x="-113.156" y="-625.455" width="133.51" height="9.59985" transform="rotate(180)"
					class="st14"/>
			<text x="-113.16" y="-618.25" transform="rotate(180)" class="st15" v:langID="1033"><v:paragraph/><v:tabList/>HTTP redirect with SAML Logout Request</text>		</g>
		<g id="shape94-171" v:mID="94" v:groupContext="shape" transform="translate(81.375,-390.72)">
			<title>Message (seq.diag).129</title>
			<desc>SAML Logout Request</desc>
			<v:userDefs>
				<v:ud v:nameU="State" v:val="VT0(1):26"/>
				<v:ud v:nameU="LostFound" v:val="VT0(0):26"/>
				<v:ud v:nameU="State" v:prompt="" v:val="VT0(2):26"/>
			</v:userDefs>
			<v:textBlock v:margins="rect(4,4,4,4)"/>
			<v:textRect cx="103.688" cy="606.72" width="80.91" height="17.6036"/>
			<path d="M0 612 L225.96 612" class="st12"/>
			<rect v:rectContext="textBkgnd" x="67.2351" y="601.92" width="71.0928" height="9.59985" class="st14"/>
			<text x="67.24" y="609.12" class="st15" v:langID="1033"><v:paragraph/><v:tabList/>SAML Logout Request</text>		</g>
		<g id="shape95-178" v:mID="95" v:groupContext="shape" transform="translate(315.615,851.28) rotate(180)">
			<title>Message (seq.diag).95</title>
			<desc>HTTP redirect with SAML Logout Request</desc>
			<v:userDefs>
				<v:ud v:nameU="State" v:val="VT0(1):26"/>
				<v:ud v:nameU="LostFound" v:val="VT0(0):26"/>
				<v:ud v:nameU="State" v:prompt="" v:val="VT0(5):26"/>
			</v:userDefs>
			<v:textBlock v:margins="rect(4,4,4,4)"/>
			<v:textRect cx="45.495" cy="620.655" width="143.33" height="17.6036" transform="rotate(180)"/>
			<path d="M0 612 L234.24 612" class="st16"/>
			<rect v:rectContext="textBkgnd" x="-113.156" y="-625.455" width="133.51" height="9.59985" transform="rotate(180)"
					class="st14"/>
			<text x="-113.16" y="-618.25" transform="rotate(180)" class="st15" v:langID="1033"><v:paragraph/><v:tabList/>HTTP redirect with SAML Logout Request</text>		</g>
		<g id="shape96-185" v:mID="96" v:groupContext="shape" transform="translate(81.375,-354.72)">
			<title>Message (seq.diag).96</title>
			<desc>SAML Logout Request</desc>
			<v:userDefs>
				<v:ud v:nameU="State" v:val="VT0(1):26"/>
				<v:ud v:nameU="LostFound" v:val="VT0(0):26"/>
				<v:ud v:nameU="State" v:prompt="" v:val="VT0(2):26"/>
			</v:userDefs>
			<v:textBlock v:margins="rect(4,4,4,4)"/>
			<v:textRect cx="103.688" cy="606.72" width="80.91" height="17.6036"/>
			<path d="M0 612 L343.08 612" class="st12"/>
			<rect v:rectContext="textBkgnd" x="67.2351" y="601.92" width="71.0928" height="9.59985" class="st14"/>
			<text x="67.24" y="609.12" class="st15" v:langID="1033"><v:paragraph/><v:tabList/>SAML Logout Request</text>		</g>
		<g id="shape97-192" v:mID="97" v:groupContext="shape" transform="translate(81.375,-318.72)">
			<title>Message (seq.diag).65</title>
			<desc>HTTP request to end_session endpoint</desc>
			<v:userDefs>
				<v:ud v:nameU="State" v:val="VT0(1):26"/>
				<v:ud v:nameU="LostFound" v:val="VT0(0):26"/>
				<v:ud v:nameU="State" v:prompt="" v:val="VT0(2):26"/>
			</v:userDefs>
			<v:textBlock v:margins="rect(4,4,4,4)"/>
			<v:textRect cx="94.5" cy="606.6" width="135.35" height="17.6036"/>
			<path d="M0 612 L460.2 612" class="st12"/>
			<rect v:rectContext="textBkgnd" x="30.8271" y="601.8" width="125.534" height="9.59985" class="st14"/>
			<text x="30.83" y="609" class="st15" v:langID="1033"><v:paragraph/><v:tabList/>HTTP request to end_session endpoint</text>		</g>
		<g id="shape98-199" v:mID="98" v:groupContext="shape" transform="translate(432.735,887.28) rotate(180)">
			<title>Message (seq.diag).135</title>
			<desc>HTTP redirect to end_session endpoint</desc>
			<v:userDefs>
				<v:ud v:nameU="State" v:val="VT0(1):26"/>
				<v:ud v:nameU="LostFound" v:val="VT0(0):26"/>
				<v:ud v:nameU="State" v:prompt="" v:val="VT0(5):26"/>
			</v:userDefs>
			<v:textBlock v:margins="rect(4,4,4,4)"/>
			<v:textRect cx="121.8" cy="617.4" width="136.03" height="17.6036" transform="rotate(180)"/>
			<path d="M0 612 L351.36 612" class="st16"/>
			<rect v:rectContext="textBkgnd" x="-185.811" y="-622.2" width="126.21" height="9.59985" transform="rotate(180)"
					class="st14"/>
			<text x="-185.81" y="-615" transform="rotate(180)" class="st15" v:langID="1033"><v:paragraph/><v:tabList/>HTTP redirect to end_session endpoint</text>		</g>
		<g id="shape99-206" v:mID="99" v:groupContext="shape" transform="translate(549.855,923.28) rotate(180)">
			<title>Message (seq.diag).67</title>
			<desc>Logout propagation page with iframes</desc>
			<v:userDefs>
				<v:ud v:nameU="State" v:val="VT0(1):26"/>
				<v:ud v:nameU="LostFound" v:val="VT0(0):26"/>
				<v:ud v:nameU="State" v:prompt="" v:val="VT0(5):26"/>
			</v:userDefs>
			<v:textBlock v:margins="rect(4,4,4,4)"/>
			<v:textRect cx="121.8" cy="617.4" width="133.9" height="17.6036" transform="rotate(180)"/>
			<path d="M0 612 L468.48 612" class="st16"/>
			<rect v:rectContext="textBkgnd" x="-184.746" y="-622.2" width="124.081" height="9.59985" transform="rotate(180)"
					class="st14"/>
			<text x="-184.75" y="-615" transform="rotate(180)" class="st15" v:langID="1033"><v:paragraph/><v:tabList/>Logout propagation page with iframes</text>		</g>
		<g id="shape100-213" v:mID="100" v:groupContext="shape" transform="translate(81.375,-282.72)">
			<title>Message (seq.diag).69</title>
			<desc>OIDC front-channel logout request(s) (asynchronous, in iframe)</desc>
			<v:userDefs>
				<v:ud v:nameU="State" v:val="VT0(1):26"/>
				<v:ud v:nameU="LostFound" v:val="VT0(0):26"/>
			</v:userDefs>
			<v:textBlock v:margins="rect(4,4,4,4)"/>
			<v:textRect cx="255.938" cy="606.6" width="214.75" height="17.6036"/>
			<path d="M0 612 L585.6 612" class="st17"/>
			<rect v:rectContext="textBkgnd" x="152.567" y="601.8" width="204.928" height="9.59985" class="st18"/>
			<text x="152.57" y="609" class="st15" v:langID="1033"><v:paragraph/><v:tabList/>OIDC front-channel logout request(s) (asynchronous, in iframe)</text>		</g>
		<g id="shape101-220" v:mID="101" v:groupContext="shape" transform="translate(666.975,959.28) rotate(180)">
			<title>Message (seq.diag).73</title>
			<desc>Response(s) (in iframe)</desc>
			<v:userDefs>
				<v:ud v:nameU="State" v:val="VT0(1):26"/>
				<v:ud v:nameU="LostFound" v:val="VT0(0):26"/>
				<v:ud v:nameU="State" v:prompt="" v:val="VT0(5):26"/>
			</v:userDefs>
			<v:textBlock v:margins="rect(4,4,4,4)"/>
			<v:textRect cx="410.1" cy="617.4" width="84.76" height="17.6036" transform="rotate(180)"/>
			<path d="M0 612 L585.6 612" class="st16"/>
			<rect v:rectContext="textBkgnd" x="-448.478" y="-622.2" width="74.9446" height="9.59985" transform="rotate(180)"
					class="st14"/>
			<text x="-448.48" y="-615" transform="rotate(180)" class="st15" v:langID="1033"><v:paragraph/><v:tabList/>Response(s) (in iframe)</text>		</g>
		<g id="group103-227" transform="translate(67.5,-37.8871)" v:mID="103" v:groupContext="group">
			<v:userDefs>
				<v:ud v:nameU="Row_1" v:val="VT0(0):26"/>
				<v:ud v:nameU="MoveText" v:val="VT0(0):26"/>
				<v:ud v:nameU="Row_3" v:val="VT0(0):26"/>
				<v:ud v:nameU="Row_4" v:val="VT0(0):26"/>
				<v:ud v:nameU="Row_5" v:val="VT0(0):26"/>
				<v:ud v:nameU="Row_6" v:val="VT0(0):26"/>
				<v:ud v:nameU="Row_7" v:val="VT0(0):26"/>
				<v:ud v:nameU="Row_8" v:val="VT0(0):26"/>
				<v:ud v:nameU="Row_9" v:val="VT0(0):26"/>
				<v:ud v:nameU="Row_10" v:val="VT0(0):26"/>
			</v:userDefs>
			<title>Diagram, Frame</title>
			<g id="shape104-228" v:mID="104" v:groupContext="shape">
				<title>Sheet.104</title>
				<v:userDefs>
					<v:ud v:nameU="HideText"/>
					<v:ud v:nameU="MoveText" v:val="VT0(0):26"/>
				</v:userDefs>
				<rect x="0" y="423" width="382.5" height="189" class="st19"/>
				<rect x="0" y="423" width="382.5" height="189" class="st7"/>
			</g>
			<g id="shape105-231" v:mID="105" v:groupContext="shape">
				<title>Sheet.105</title>
				<desc>[guard]</desc>
				<v:userDefs>
					<v:ud v:nameU="HideText" v:val="VT0(0):26"/>
					<v:ud v:nameU="MoveText" v:val="VT0(0):26"/>
					<v:ud v:nameU="HideLine" v:val="VT0(0):26"/>
				</v:userDefs>
				<v:textBlock v:margins="rect(4,4,4,4)"/>
				<v:textRect cx="53.76" cy="621" width="33.52" height="17.6036"/>
			</g>
			<g id="shape106-233" v:mID="106" v:groupContext="shape">
				<title>Sheet.106</title>
				<desc>[guard]</desc>
				<v:userDefs>
					<v:ud v:nameU="HideText" v:val="VT0(0):26"/>
					<v:ud v:nameU="MoveText" v:val="VT0(0):26"/>
					<v:ud v:nameU="HideLine" v:val="VT0(0):26"/>
				</v:userDefs>
				<v:textBlock v:margins="rect(4,4,4,4)"/>
				<v:textRect cx="191.25" cy="621" width="33.52" height="17.6036"/>
			</g>
			<g id="shape107-235" v:mID="107" v:groupContext="shape">
				<title>Sheet.107</title>
				<desc>[guard]</desc>
				<v:userDefs>
					<v:ud v:nameU="HideText" v:val="VT0(0):26"/>
					<v:ud v:nameU="MoveText" v:val="VT0(0):26"/>
					<v:ud v:nameU="HideLine" v:val="VT0(0):26"/>
				</v:userDefs>
				<v:textBlock v:margins="rect(4,4,4,4)"/>
				<v:textRect cx="191.25" cy="621" width="33.52" height="17.6036"/>
			</g>
			<g id="shape108-237" v:mID="108" v:groupContext="shape">
				<title>Sheet.108</title>
				<desc>[guard]</desc>
				<v:userDefs>
					<v:ud v:nameU="HideText" v:val="VT0(0):26"/>
					<v:ud v:nameU="MoveText" v:val="VT0(0):26"/>
					<v:ud v:nameU="HideLine" v:val="VT0(0):26"/>
				</v:userDefs>
				<v:textBlock v:margins="rect(4,4,4,4)"/>
				<v:textRect cx="191.25" cy="621" width="33.52" height="17.6036"/>
			</g>
			<g id="shape109-239" v:mID="109" v:groupContext="shape">
				<title>Sheet.109</title>
				<desc>[guard]</desc>
				<v:userDefs>
					<v:ud v:nameU="HideText" v:val="VT0(0):26"/>
					<v:ud v:nameU="MoveText" v:val="VT0(0):26"/>
					<v:ud v:nameU="HideLine" v:val="VT0(0):26"/>
				</v:userDefs>
				<v:textBlock v:margins="rect(4,4,4,4)"/>
				<v:textRect cx="191.25" cy="621" width="33.52" height="17.6036"/>
			</g>
			<g id="shape110-241" v:mID="110" v:groupContext="shape">
				<title>Sheet.110</title>
				<desc>[guard]</desc>
				<v:userDefs>
					<v:ud v:nameU="HideText" v:val="VT0(0):26"/>
					<v:ud v:nameU="MoveText" v:val="VT0(0):26"/>
					<v:ud v:nameU="HideLine" v:val="VT0(0):26"/>
				</v:userDefs>
				<v:textBlock v:margins="rect(4,4,4,4)"/>
				<v:textRect cx="191.25" cy="621" width="33.52" height="17.6036"/>
			</g>
			<g id="shape111-243" v:mID="111" v:groupContext="shape">
				<title>Sheet.111</title>
				<desc>[guard]</desc>
				<v:userDefs>
					<v:ud v:nameU="HideText" v:val="VT0(0):26"/>
					<v:ud v:nameU="MoveText" v:val="VT0(0):26"/>
					<v:ud v:nameU="HideLine" v:val="VT0(0):26"/>
				</v:userDefs>
				<v:textBlock v:margins="rect(4,4,4,4)"/>
				<v:textRect cx="191.25" cy="621" width="33.52" height="17.6036"/>
			</g>
			<g id="shape112-245" v:mID="112" v:groupContext="shape">
				<title>Sheet.112</title>
				<desc>[guard]</desc>
				<v:userDefs>
					<v:ud v:nameU="HideText" v:val="VT0(0):26"/>
					<v:ud v:nameU="MoveText" v:val="VT0(0):26"/>
					<v:ud v:nameU="HideLine" v:val="VT0(0):26"/>
				</v:userDefs>
				<v:textBlock v:margins="rect(4,4,4,4)"/>
				<v:textRect cx="191.25" cy="621" width="33.52" height="17.6036"/>
			</g>
			<g id="shape113-247" v:mID="113" v:groupContext="shape" transform="translate(0,-171)">
				<title>Sheet.113</title>
				<desc>alt</desc>
				<v:userDefs>
					<v:ud v:nameU="Row_1" v:val="VT0(0):26"/>
					<v:ud v:nameU="Row_2" v:val="VT0(0):26"/>
				</v:userDefs>
				<v:textBlock v:margins="rect(4,4,4,4)"/>
				<v:textRect cx="28.61" cy="603" width="18.5" height="18"/>
				<path d="M0 612 L48.22 612 L57.22 603 L57.22 594 L0 594 L0 612 Z" class="st1"/>
				<text x="24.27" y="605.4" class="st8" v:langID="1033"><v:paragraph v:horizAlign="1"/><v:tabList/>alt</text>			</g>
		</g>
		<g id="shape114-250" v:mID="114" v:groupContext="shape" transform="translate(87,-190.887)">
			<title>Sheet.114</title>
			<desc>[logout problem]</desc>
			<v:textBlock v:margins="rect(4,4,4,4)"/>
			<v:textRect cx="33" cy="602" width="66.01" height="20"/>
			<rect x="0" y="592" width="66" height="20" class="st4"/>
			<rect v:rectContext="textBkgnd" x="4.00012" y="597.2" width="55.2574" height="9.59985" class="st14"/>
			<text x="4" y="604.4" class="st15" v:langID="1033"><v:paragraph/><v:tabList/>[logout problem]</text>		</g>
		<g id="shape115-254" v:mID="115" v:groupContext="shape" transform="translate(81.375,-194.607)">
			<title>Message (seq.diag).239</title>
			<desc>HTTP request indicating partial logout</desc>
			<v:userDefs>
				<v:ud v:nameU="State" v:val="VT0(1):26"/>
				<v:ud v:nameU="LostFound" v:val="VT0(0):26"/>
				<v:ud v:nameU="State" v:prompt="" v:val="VT0(2):26"/>
			</v:userDefs>
			<v:textBlock v:margins="rect(4,4,4,4)"/>
			<v:textRect cx="257.37" cy="603.345" width="132.64" height="17.6036"/>
			<path d="M0 612 L343.08 612" class="st12"/>
			<rect v:rectContext="textBkgnd" x="195.055" y="598.545" width="122.819" height="9.59985" class="st14"/>
			<text x="195.05" y="605.75" class="st15" v:langID="1033"><v:paragraph/><v:tabList/>HTTP request indicating partial logout</text>		</g>
		<g id="shape119-261" v:mID="119" v:groupContext="shape" v:layerMember="0" transform="translate(67.5,-115.512)">
			<title>Dynamic connector</title>
			<path d="M0 603 L382.5 603" class="st20"/>
		</g>
		<g id="shape120-264" v:mID="120" v:groupContext="shape" transform="translate(432.735,1043.79) rotate(180)">
			<title>Message (seq.diag).120</title>
			<desc>HTTP redirect with SAML Logout Response (Partial Logout)</desc>
			<v:userDefs>
				<v:ud v:nameU="State" v:val="VT0(1):26"/>
				<v:ud v:nameU="LostFound" v:val="VT0(0):26"/>
				<v:ud v:nameU="State" v:prompt="" v:val="VT0(5):26"/>
			</v:userDefs>
			<v:textBlock v:margins="rect(4,4,4,4)"/>
			<v:textRect cx="175.11" cy="617.055" width="199.85" height="17.6036" transform="rotate(180)"/>
			<path d="M0 612 L351.36 612" class="st16"/>
			<rect v:rectContext="textBkgnd" x="-271.032" y="-621.855" width="190.033" height="9.59985" transform="rotate(180)"
					class="st14"/>
			<text x="-271.03" y="-614.65" transform="rotate(180)" class="st15" v:langID="1033"><v:paragraph/><v:tabList/>HTTP redirect with SAML Logout Response (Partial Logout)</text>		</g>
		<g id="shape122-271" v:mID="122" v:groupContext="shape" transform="translate(87,-105.565)">
			<title>Sheet.122</title>
			<desc>[else]</desc>
			<v:textBlock v:margins="rect(4,4,4,4)"/>
			<v:textRect cx="15" cy="602" width="30" height="20"/>
			<rect x="0" y="592" width="30" height="20" class="st4"/>
			<rect v:rectContext="textBkgnd" x="4.00012" y="597.2" width="17.8319" height="9.59985" class="st14"/>
			<text x="4" y="604.4" class="st15" v:langID="1033"><v:paragraph/><v:tabList/>[else]</text>		</g>
		<g id="shape125-275" v:mID="125" v:groupContext="shape" transform="translate(315.615,1073.97) rotate(180)">
			<title>Message (seq.diag).125</title>
			<desc>HTTP redirect with SAML Logout Response (Partial Logout)</desc>
			<v:userDefs>
				<v:ud v:nameU="State" v:val="VT0(1):26"/>
				<v:ud v:nameU="LostFound" v:val="VT0(0):26"/>
				<v:ud v:nameU="State" v:prompt="" v:val="VT0(5):26"/>
			</v:userDefs>
			<v:textBlock v:margins="rect(4,4,4,4)"/>
			<v:textRect cx="117.12" cy="614.967" width="199.85" height="17.6036" transform="rotate(180)"/>
			<path d="M0 612 L234.24 612" class="st16"/>
			<rect v:rectContext="textBkgnd" x="-213.042" y="-619.767" width="190.033" height="9.59985" transform="rotate(180)"
					class="st14"/>
			<text x="-213.04" y="-612.57" transform="rotate(180)" class="st15" v:langID="1033"><v:paragraph/><v:tabList/>HTTP redirect with SAML Logout Response (Partial Logout)</text>		</g>
		<g id="shape126-282" v:mID="126" v:groupContext="shape" transform="translate(81.375,-132.848)">
			<title>Message (seq.diag).126</title>
			<desc>SAML Logout Response (Partial Logout)</desc>
			<v:userDefs>
				<v:ud v:nameU="State" v:val="VT0(1):26"/>
				<v:ud v:nameU="LostFound" v:val="VT0(0):26"/>
				<v:ud v:nameU="State" v:prompt="" v:val="VT0(2):26"/>
			</v:userDefs>
			<v:textBlock v:margins="rect(4,4,4,4)"/>
			<v:textRect cx="71.625" cy="603.461" width="137.43" height="17.6036"/>
			<path d="M0 612 L108.84 612" class="st12"/>
			<rect v:rectContext="textBkgnd" x="6.91112" y="598.662" width="127.616" height="9.59985" class="st14"/>
			<text x="6.91" y="605.86" class="st15" v:langID="1033"><v:paragraph/><v:tabList/>SAML Logout Response (Partial Logout)</text>		</g>
		<g id="shape127-289" v:mID="127" v:groupContext="shape" transform="translate(81.375,-166.366)">
			<title>Message (seq.diag).127</title>
			<desc>SAML Logout Response (Partial Logout)</desc>
			<v:userDefs>
				<v:ud v:nameU="State" v:val="VT0(1):26"/>
				<v:ud v:nameU="LostFound" v:val="VT0(0):26"/>
				<v:ud v:nameU="State" v:prompt="" v:val="VT0(2):26"/>
			</v:userDefs>
			<v:textBlock v:margins="rect(4,4,4,4)"/>
			<v:textRect cx="103.688" cy="606.72" width="137.43" height="17.6036"/>
			<path d="M0 612 L225.96 612" class="st12"/>
			<rect v:rectContext="textBkgnd" x="38.9736" y="601.92" width="127.616" height="9.59985" class="st14"/>
			<text x="38.97" y="609.12" class="st15" v:langID="1033"><v:paragraph/><v:tabList/>SAML Logout Response (Partial Logout)</text>		</g>
		<g id="shape133-296" v:mID="133" v:groupContext="shape" transform="translate(80.64,-105.387)">
			<title>Message (seq.diag).133</title>
			<desc>HTTP request indicating successful logout</desc>
			<v:userDefs>
				<v:ud v:nameU="State" v:val="VT0(1):26"/>
				<v:ud v:nameU="LostFound" v:val="VT0(0):26"/>
				<v:ud v:nameU="State" v:prompt="" v:val="VT0(2):26"/>
			</v:userDefs>
			<v:textBlock v:margins="rect(4,4,4,4)"/>
			<v:textRect cx="257.37" cy="603.345" width="144.44" height="17.6036"/>
			<path d="M0 612 L343.08 612" class="st12"/>
			<rect v:rectContext="textBkgnd" x="189.151" y="598.545" width="134.627" height="9.59985" class="st14"/>
			<text x="189.15" y="605.75" class="st15" v:langID="1033"><v:paragraph/><v:tabList/>HTTP request indicating successful logout</text>		</g>
		<g id="shape134-303" v:mID="134" v:groupContext="shape" transform="translate(432,1133.01) rotate(180)">
			<title>Message (seq.diag).134</title>
			<desc>HTTP redirect with SAML Logout Response (Success)</desc>
			<v:userDefs>
				<v:ud v:nameU="State" v:val="VT0(1):26"/>
				<v:ud v:nameU="LostFound" v:val="VT0(0):26"/>
				<v:ud v:nameU="State" v:prompt="" v:val="VT0(5):26"/>
			</v:userDefs>
			<v:textBlock v:margins="rect(4,4,4,4)"/>
			<v:textRect cx="175.11" cy="617.055" width="179.54" height="17.6036" transform="rotate(180)"/>
			<path d="M0 612 L351.36 612" class="st16"/>
			<rect v:rectContext="textBkgnd" x="-260.876" y="-621.855" width="169.721" height="9.59985" transform="rotate(180)"
					class="st14"/>
			<text x="-260.88" y="-614.65" transform="rotate(180)" class="st15" v:langID="1033"><v:paragraph/><v:tabList/>HTTP redirect with SAML Logout Response (Success)</text>		</g>
		<g id="shape135-310" v:mID="135" v:groupContext="shape" transform="translate(314.88,1163.19) rotate(180)">
			<title>Message (seq.diag).135</title>
			<desc>HTTP redirect with SAML Logout Response (Success)</desc>
			<v:userDefs>
				<v:ud v:nameU="State" v:val="VT0(1):26"/>
				<v:ud v:nameU="LostFound" v:val="VT0(0):26"/>
				<v:ud v:nameU="State" v:prompt="" v:val="VT0(5):26"/>
			</v:userDefs>
			<v:textBlock v:margins="rect(4,4,4,4)"/>
			<v:textRect cx="117.12" cy="616.854" width="179.54" height="17.6036" transform="rotate(180)"/>
			<path d="M0 612 L234.24 612" class="st16"/>
			<rect v:rectContext="textBkgnd" x="-202.886" y="-621.654" width="169.721" height="9.59985" transform="rotate(180)"
					class="st18"/>
			<text x="-202.89" y="-614.45" transform="rotate(180)" class="st15" v:langID="1033"><v:paragraph/><v:tabList/>HTTP redirect with SAML Logout Response (Success)</text>		</g>
		<g id="shape136-317" v:mID="136" v:groupContext="shape" transform="translate(80.64,-43.6285)">
			<title>Message (seq.diag).136</title>
			<desc>SAML Logout Response (Success)</desc>
			<v:userDefs>
				<v:ud v:nameU="State" v:val="VT0(1):26"/>
				<v:ud v:nameU="LostFound" v:val="VT0(0):26"/>
				<v:ud v:nameU="State" v:prompt="" v:val="VT0(2):26"/>
			</v:userDefs>
			<v:textBlock v:margins="rect(4,4,4,4)"/>
			<v:textRect cx="71.625" cy="603.461" width="117.12" height="17.6036"/>
			<path d="M0 612 L108.84 612" class="st12"/>
			<rect v:rectContext="textBkgnd" x="17.0673" y="598.662" width="107.303" height="9.59985" class="st14"/>
			<text x="17.07" y="605.86" class="st15" v:langID="1033"><v:paragraph/><v:tabList/>SAML Logout Response (Success)</text>		</g>
		<g id="shape137-324" v:mID="137" v:groupContext="shape" transform="translate(80.64,-77.1457)">
			<title>Message (seq.diag).137</title>
			<desc>SAML Logout Response (Success)</desc>
			<v:userDefs>
				<v:ud v:nameU="State" v:val="VT0(1):26"/>
				<v:ud v:nameU="LostFound" v:val="VT0(0):26"/>
				<v:ud v:nameU="State" v:prompt="" v:val="VT0(2):26"/>
			</v:userDefs>
			<v:textBlock v:margins="rect(4,4,4,4)"/>
			<v:textRect cx="103.688" cy="606.72" width="117.12" height="17.6036"/>
			<path d="M0 612 L225.96 612" class="st12"/>
			<rect v:rectContext="textBkgnd" x="49.1298" y="601.92" width="107.303" height="9.59985" class="st18"/>
			<text x="49.13" y="609.12" class="st15" v:langID="1033"><v:paragraph/><v:tabList/>SAML Logout Response (Success)</text>		</g>
		<g id="shape139-331" v:mID="139" v:groupContext="shape" transform="translate(198.495,1195.89) rotate(180)">
			<title>Message (seq.diag).139</title>
			<desc>RP Logout Error / Landing Page</desc>
			<v:userDefs>
				<v:ud v:nameU="State" v:val="VT0(1):26"/>
				<v:ud v:nameU="LostFound" v:val="VT0(0):26"/>
				<v:ud v:nameU="State" v:prompt="" v:val="VT0(5):26"/>
			</v:userDefs>
			<v:textBlock v:margins="rect(4,4,4,4)"/>
			<v:textRect cx="56.1825" cy="615.03" width="110.48" height="17.6036" transform="rotate(180)"/>
			<path d="M0 612 L117.12 612" class="st16"/>
			<rect v:rectContext="textBkgnd" x="-107.422" y="-619.83" width="100.667" height="9.59985" transform="rotate(180)"
					class="st18"/>
			<text x="-107.42" y="-612.63" transform="rotate(180)" class="st15" v:langID="1033"><v:paragraph/><v:tabList/>RP Logout Error / Landing Page</text>		</g>
		<g id="shape140-338" v:mID="140" v:groupContext="shape" transform="translate(-530.625,356.28) rotate(-90)">
			<title>Message to self.145</title>
			<desc>Wait for &#38; check responses</desc>
			<v:userDefs>
				<v:ud v:nameU="State" v:val="VT0(1):26"/>
				<v:ud v:nameU="State" v:prompt="" v:val="VT0(2):26"/>
			</v:userDefs>
			<v:textBlock v:margins="rect(4,4,4,4)"/>
			<v:textRect cx="-9" cy="670.5" width="98.77" height="17.6036" transform="rotate(90)"/>
			<path d="M0 612 L0 670.5 L-18 670.5 L-18 620.28" class="st12"/>
			<rect v:rectContext="textBkgnd" x="625.118" y="4.20026" width="88.9525" height="9.59985" transform="rotate(90)"
					class="st14"/>
			<text x="625.12" y="11.4" transform="rotate(90)" class="st15" v:langID="1033"><v:paragraph/><v:tabList/>Wait for &#38; check responses</text>		</g>
	</g>
</svg>
