<?xml version="1.0" encoding="UTF-8" standalone="no"?>
<!DOCTYPE svg PUBLIC "-//W3C//DTD SVG 1.1//EN" "http://www.w3.org/Graphics/SVG/1.1/DTD/svg11.dtd">
<!-- Generated by Microsoft Visio, SVG Export SP-initiated-logout.svg Page-1 -->
<svg xmlns="http://www.w3.org/2000/svg" xmlns:xlink="http://www.w3.org/1999/xlink" xmlns:ev="http://www.w3.org/2001/xml-events"
		xmlns:v="http://schemas.microsoft.com/visio/2003/SVGExtensions/" width="11in" height="8.5in" viewBox="0 0 792 612"
		xml:space="preserve" color-interpolation-filters="sRGB" class="st19">
	<v:documentProperties v:langID="1033" v:viewMarkup="false">
		<v:userDefs>
			<v:ud v:nameU="msvNoAutoConnect" v:val="VT0(1):26"/>
		</v:userDefs>
	</v:documentProperties>

	<style type="text/css">
	<![CDATA[
		.st1 {fill:#ffffff;stroke:#000000;stroke-linecap:round;stroke-linejoin:round;stroke-width:0.24}
		.st2 {fill:#000000;font-family:Calibri;font-size:0.833336em}
		.st3 {stroke:#000000;stroke-dasharray:3.6,2.16;stroke-linecap:round;stroke-linejoin:round;stroke-width:0.24}
		.st4 {fill:none;stroke:none;stroke-linecap:round;stroke-linejoin:round;stroke-width:0.75}
		.st5 {fill:#000000;font-family:Calibri;font-size:1.00001em}
		.st6 {fill:#ffffff}
		.st7 {stroke:#000000;stroke-linecap:round;stroke-linejoin:round;stroke-width:0.24}
		.st8 {fill:#000000;font-family:Calibri;font-size:0.666664em;font-weight:bold}
		.st9 {font-size:1em}
		.st10 {fill:#ffffff;stroke:#000000;stroke-linecap:round;stroke-linejoin:round;stroke-width:0.75}
		.st11 {fill:#000000}
		.st12 {marker-end:url(#mrkr13-160);stroke:#000000;stroke-linecap:round;stroke-linejoin:round;stroke-width:0.24}
		.st13 {fill:#000000;fill-opacity:1;stroke:#000000;stroke-opacity:1;stroke-width:0.08695652173913}
		.st14 {fill:#ffffff;stroke:none;stroke-linecap:butt;stroke-width:7.2}
		.st15 {fill:#000000;font-family:Calibri;font-size:0.666664em}
		.st16 {marker-end:url(#mrkr12-175);stroke:#000000;stroke-dasharray:1.68,1.2;stroke-linecap:round;stroke-linejoin:round;stroke-width:0.24}
		.st17 {marker-end:url(#mrkr12-175);stroke:#000000;stroke-linecap:round;stroke-linejoin:round;stroke-width:0.24}
		.st18 {fill:#ffffff;visibility:hidden}
		.st19 {fill:none;fill-rule:evenodd;font-size:12px;overflow:visible;stroke-linecap:square;stroke-miterlimit:3}
	]]>
	</style>

	<defs id="Markers">
		<g id="lend13">
			<path d="M 3 1 L 0 0 L 3 -1 L 3 1 " style="stroke:none"/>
		</g>
		<marker id="mrkr13-160" class="st13" v:arrowType="13" v:arrowSize="2" v:setback="34.5" refX="-34.5" orient="auto"
				markerUnits="strokeWidth" overflow="visible">
			<use xlink:href="#lend13" transform="scale(-11.5,-11.5) "/>
		</marker>
		<g id="lend12">
			<path d="M 3 1 L 0 0 L 3 -1 " style="stroke-linecap:round;stroke-linejoin:round;fill:none"/>
		</g>
		<marker id="mrkr12-175" class="st13" v:arrowType="12" v:arrowSize="2" orient="auto" markerUnits="strokeWidth"
				overflow="visible">
			<use xlink:href="#lend12" transform="scale(-11.5,-11.5) "/>
		</marker>
	</defs>
	<g v:mID="0" v:index="1" v:groupContext="foregroundPage">
		<title>Page-1</title>
		<v:pageProperties v:drawingScale="1" v:pageScale="1" v:drawingUnits="19" v:shadowOffsetX="9" v:shadowOffsetY="-9"/>
		<g id="shape243-1" v:mID="243" v:groupContext="shape" transform="translate(274.8,-490.5)">
			<title>Rectangle</title>
			<desc>Sign in Canada Acceptance Platform</desc>
			<v:userDefs>
				<v:ud v:nameU="visVersion" v:val="VT0(15):26"/>
			</v:userDefs>
			<v:textBlock v:margins="rect(4,4,4,4)" v:verticalAlign="0"/>
			<v:textRect cx="164.1" cy="576" width="328.2" height="72"/>
			<rect x="0" y="540" width="328.2" height="72" class="st1"/>
			<text x="91.04" y="553" class="st2" v:langID="1033"><v:paragraph v:horizAlign="1"/><v:tabList/>Sign in Canada Acceptance Platform</text>		</g>
		<g id="shape8-4" v:mID="8" v:groupContext="shape" transform="translate(81,734.4) scale(1,-1)">
			<title>Lifeline</title>
			<path d="M0 612 L0 198" class="st3"/>
		</g>
		<g id="shape9-7" v:mID="9" v:groupContext="shape" transform="translate(18,-558)">
			<title>Sheet.9</title>
			<desc>OpenID Connect RP-Initiated Logout</desc>
			<v:textBlock v:margins="rect(4,4,4,4)"/>
			<v:textRect cx="101.25" cy="602" width="202.5" height="20"/>
			<rect x="0" y="592" width="202.5" height="20" class="st4"/>
			<text x="13.03" y="605.6" class="st5" v:langID="1033"><v:paragraph v:horizAlign="1"/><v:tabList/>OpenID Connect RP-Initiated Logout</text>		</g>
		<g id="group19-10" transform="translate(180,-498.6)" v:mID="19" v:groupContext="group">
			<v:userDefs>
				<v:ud v:nameU="F" v:val="VT0(0):26"/>
				<v:ud v:nameU="Format" v:val="VT0(0):26"/>
				<v:ud v:nameU="ResizeIcon" v:val="VT0(0):26"/>
			</v:userDefs>
			<title>Component</title>
			<g id="shape20-11" v:mID="20" v:groupContext="shape">
				<title>Sheet.20</title>
				<path d="M72 612 L0 612 L72 612 Z" class="st6"/>
			</g>
			<g id="shape21-14" v:mID="21" v:groupContext="shape">
				<title>Sheet.21</title>
				<path d="M72 612 L0 612 L72 612 Z" class="st6"/>
			</g>
			<g id="shape22-17" v:mID="22" v:groupContext="shape">
				<title>Sheet.22</title>
				<path d="M72 612 L0 612 L72 612 Z" class="st6"/>
			</g>
			<g id="shape23-20" v:mID="23" v:groupContext="shape" transform="translate(72,0)">
				<title>Sheet.23</title>
				<path d="M0 612 L0 576 L0 612 Z" class="st6"/>
				<path d="" class="st7"/>
			</g>
			<g id="shape24-23" v:mID="24" v:groupContext="shape">
				<title>Sheet.24</title>
				<desc>Relying Party</desc>
				<v:textBlock v:margins="rect(4,4,4,4)"/>
				<v:textRect cx="36" cy="594" width="72" height="36"/>
				<path d="M72 612 L72 576 L0 576 L0 612 L72 612 ZM72 612 L72 576 L0 576 L72 576 L72 612 Z" class="st6"/>
				<path d="M72 612 L72 576" class="st7"/>
				<path d="M0 612 L0 576" class="st7"/>
				<path d="M0 612 L72 612" class="st7"/>
				<path d="M72 612 L72 576" class="st7"/>
				<path d="M0 576 L72 576" class="st7"/>
				<text x="14.12" y="596.4" class="st8" v:langID="1033"><v:paragraph v:horizAlign="1"/><v:tabList/>Relying Party</text>			</g>
			<g id="shape25-31" v:mID="25" v:groupContext="shape" transform="translate(58.5,-22.5)">
				<title>Sheet.25</title>
				<path d="M0 612 L9 612 L9 603 L0 603 L0 604.8 L1.8 604.8 L1.8 606.6 L0 606.6 L0 608.4 L1.8 608.4 L1.8 610.2 L0 610.2
							 L0 612 ZM-1.8 610.2 L1.8 610.2 L1.8 608.4 L-1.8 608.4 L-1.8 610.2 ZM-1.8 606.6 L1.8 606.6 L1.8 604.8
							 L-1.8 604.8 L-1.8 606.6 Z" class="st1"/>
			</g>
		</g>
		<g id="group26-33" transform="translate(630.6,-498.6)" v:mID="26" v:groupContext="group">
			<v:userDefs>
				<v:ud v:nameU="F" v:val="VT0(0):26"/>
				<v:ud v:nameU="Format" v:val="VT0(0):26"/>
				<v:ud v:nameU="ResizeIcon" v:val="VT0(0):26"/>
			</v:userDefs>
			<title>Component.26</title>
			<g id="shape27-34" v:mID="27" v:groupContext="shape">
				<title>Sheet.27</title>
				<path d="M72 612 L0 612 L72 612 Z" class="st6"/>
			</g>
			<g id="shape28-37" v:mID="28" v:groupContext="shape">
				<title>Sheet.28</title>
				<path d="M72 612 L0 612 L72 612 Z" class="st6"/>
			</g>
			<g id="shape29-40" v:mID="29" v:groupContext="shape">
				<title>Sheet.29</title>
				<path d="M72 612 L0 612 L72 612 Z" class="st6"/>
			</g>
			<g id="shape30-43" v:mID="30" v:groupContext="shape" transform="translate(72,0)">
				<title>Sheet.30</title>
				<path d="M0 612 L0 576 L0 612 Z" class="st6"/>
				<path d="" class="st7"/>
			</g>
			<g id="shape31-46" v:mID="31" v:groupContext="shape">
				<title>Sheet.31</title>
				<desc>Other OIDC RP(s)</desc>
				<v:textBlock v:margins="rect(4,4,4,4)"/>
				<v:textRect cx="36" cy="594" width="72" height="36"/>
				<path d="M72 612 L72 576 L0 576 L0 612 L72 612 ZM72 612 L72 576 L0 576 L72 576 L72 612 Z" class="st6"/>
				<path d="M72 612 L72 576" class="st7"/>
				<path d="M0 612 L0 576" class="st7"/>
				<path d="M0 612 L72 612" class="st7"/>
				<path d="M72 612 L72 576" class="st7"/>
				<path d="M0 576 L72 576" class="st7"/>
				<text x="7.64" y="596.4" class="st8" v:langID="1033"><v:paragraph v:horizAlign="1"/><v:tabList/>Other OIDC RP(s)</text>			</g>
			<g id="shape32-54" v:mID="32" v:groupContext="shape" transform="translate(58.5,-22.5)">
				<title>Sheet.32</title>
				<path d="M0 612 L9 612 L9 603 L0 603 L0 604.8 L1.8 604.8 L1.8 606.6 L0 606.6 L0 608.4 L1.8 608.4 L1.8 610.2 L0 610.2
							 L0 612 ZM-1.8 610.2 L1.8 610.2 L1.8 608.4 L-1.8 608.4 L-1.8 610.2 ZM-1.8 606.6 L1.8 606.6 L1.8 604.8
							 L-1.8 604.8 L-1.8 606.6 Z" class="st1"/>
			</g>
		</g>
		<g id="group33-56" transform="translate(292.8,-498.6)" v:mID="33" v:groupContext="group">
			<v:userDefs>
				<v:ud v:nameU="F" v:val="VT0(0):26"/>
				<v:ud v:nameU="Format" v:val="VT0(0):26"/>
				<v:ud v:nameU="ResizeIcon" v:val="VT0(0):26"/>
			</v:userDefs>
			<title>Component.33</title>
			<g id="shape34-57" v:mID="34" v:groupContext="shape">
				<title>Sheet.34</title>
				<path d="M72 612 L0 612 L72 612 Z" class="st6"/>
			</g>
			<g id="shape35-60" v:mID="35" v:groupContext="shape">
				<title>Sheet.35</title>
				<path d="M72 612 L0 612 L72 612 Z" class="st6"/>
			</g>
			<g id="shape36-63" v:mID="36" v:groupContext="shape">
				<title>Sheet.36</title>
				<path d="M72 612 L0 612 L72 612 Z" class="st6"/>
			</g>
			<g id="shape37-66" v:mID="37" v:groupContext="shape" transform="translate(72,0)">
				<title>Sheet.37</title>
				<path d="M0 612 L0 576 L0 612 Z" class="st6"/>
				<path d="" class="st7"/>
			</g>
			<g id="shape38-69" v:mID="38" v:groupContext="shape">
				<title>Sheet.38</title>
				<desc>OpenID Provider</desc>
				<v:textBlock v:margins="rect(4,4,4,4)"/>
				<v:textRect cx="36" cy="594" width="72" height="36"/>
				<path d="M72 612 L72 576 L0 576 L0 612 L72 612 ZM72 612 L72 576 L0 576 L72 576 L72 612 Z" class="st6"/>
				<path d="M72 612 L72 576" class="st7"/>
				<path d="M0 612 L0 576" class="st7"/>
				<path d="M0 612 L72 612" class="st7"/>
				<path d="M72 612 L72 576" class="st7"/>
				<path d="M0 576 L72 576" class="st7"/>
				<text x="8.34" y="596.4" class="st8" v:langID="1033"><v:paragraph v:horizAlign="1"/><v:tabList/>OpenID Provider</text>			</g>
			<g id="shape39-77" v:mID="39" v:groupContext="shape" transform="translate(58.5,-22.5)">
				<title>Sheet.39</title>
				<path d="M0 612 L9 612 L9 603 L0 603 L0 604.8 L1.8 604.8 L1.8 606.6 L0 606.6 L0 608.4 L1.8 608.4 L1.8 610.2 L0 610.2
							 L0 612 ZM-1.8 610.2 L1.8 610.2 L1.8 608.4 L-1.8 608.4 L-1.8 610.2 ZM-1.8 606.6 L1.8 606.6 L1.8 604.8
							 L-1.8 604.8 L-1.8 606.6 Z" class="st1"/>
			</g>
		</g>
		<g id="group40-79" transform="translate(513.6,-498.6)" v:mID="40" v:groupContext="group">
			<v:userDefs>
				<v:ud v:nameU="F" v:val="VT0(0):26"/>
				<v:ud v:nameU="Format" v:val="VT0(0):26"/>
				<v:ud v:nameU="ResizeIcon" v:val="VT0(0):26"/>
			</v:userDefs>
			<title>Component.40</title>
			<g id="shape41-80" v:mID="41" v:groupContext="shape">
				<title>Sheet.41</title>
				<path d="M72 612 L0 612 L72 612 Z" class="st6"/>
			</g>
			<g id="shape42-83" v:mID="42" v:groupContext="shape">
				<title>Sheet.42</title>
				<path d="M72 612 L0 612 L72 612 Z" class="st6"/>
			</g>
			<g id="shape43-86" v:mID="43" v:groupContext="shape">
				<title>Sheet.43</title>
				<path d="M72 612 L0 612 L72 612 Z" class="st6"/>
			</g>
			<g id="shape44-89" v:mID="44" v:groupContext="shape" transform="translate(72,0)">
				<title>Sheet.44</title>
				<path d="M0 612 L0 576 L0 612 Z" class="st6"/>
				<path d="" class="st7"/>
			</g>
			<g id="shape45-92" v:mID="45" v:groupContext="shape">
				<title>Sheet.45</title>
				<desc>SAML IDP (CSP)</desc>
				<v:textBlock v:margins="rect(4,4,4,4)"/>
				<v:textRect cx="36" cy="594" width="72" height="36"/>
				<path d="M72 612 L72 576 L0 576 L0 612 L72 612 ZM72 612 L72 576 L0 576 L72 576 L72 612 Z" class="st6"/>
				<path d="M72 612 L72 576" class="st7"/>
				<path d="M0 612 L0 576" class="st7"/>
				<path d="M0 612 L72 612" class="st7"/>
				<path d="M72 612 L72 576" class="st7"/>
				<path d="M0 576 L72 576" class="st7"/>
				<text x="19.88" y="591.6" class="st8" v:langID="1033"><v:paragraph v:horizAlign="1"/><v:tabList/>SAML IDP<v:newlineChar/><tspan
							x="27.37" dy="1.2em" class="st9">(CSP)</tspan></text>			</g>
			<g id="shape46-101" v:mID="46" v:groupContext="shape" transform="translate(58.5,-22.5)">
				<title>Sheet.46</title>
				<path d="M0 612 L9 612 L9 603 L0 603 L0 604.8 L1.8 604.8 L1.8 606.6 L0 606.6 L0 608.4 L1.8 608.4 L1.8 610.2 L0 610.2
							 L0 612 ZM-1.8 610.2 L1.8 610.2 L1.8 608.4 L-1.8 608.4 L-1.8 610.2 ZM-1.8 606.6 L1.8 606.6 L1.8 604.8
							 L-1.8 604.8 L-1.8 606.6 Z" class="st1"/>
			</g>
		</g>
		<g id="shape47-103" v:mID="47" v:groupContext="shape" transform="translate(216,725.4) scale(1,-1)">
			<title>Lifeline.47</title>
			<path d="M0 612 L0 185.4" class="st3"/>
		</g>
		<g id="shape48-106" v:mID="48" v:groupContext="shape" transform="translate(328.8,725.4) scale(1,-1)">
			<title>Lifeline.48</title>
			<path d="M0 612 L0 185.4" class="st3"/>
		</g>
		<g id="shape49-109" v:mID="49" v:groupContext="shape" transform="translate(666.6,725.4) scale(1,-1)">
			<title>Lifeline.49</title>
			<path d="M0 612 L0 185.4" class="st3"/>
		</g>
		<g id="shape50-112" v:mID="50" v:groupContext="shape" transform="translate(549.6,725.4) scale(1,-1)">
			<title>Lifeline.50</title>
			<path d="M0 612 L0 185.4" class="st3"/>
		</g>
		<g id="group51-115" transform="translate(405.6,-498.6)" v:mID="51" v:groupContext="group">
			<v:userDefs>
				<v:ud v:nameU="F" v:val="VT0(0):26"/>
				<v:ud v:nameU="Format" v:val="VT0(0):26"/>
				<v:ud v:nameU="ResizeIcon" v:val="VT0(0):26"/>
			</v:userDefs>
			<title>Component.51</title>
			<g id="shape52-116" v:mID="52" v:groupContext="shape">
				<title>Sheet.52</title>
				<path d="M72 612 L0 612 L72 612 Z" class="st6"/>
			</g>
			<g id="shape53-119" v:mID="53" v:groupContext="shape">
				<title>Sheet.53</title>
				<path d="M72 612 L0 612 L72 612 Z" class="st6"/>
			</g>
			<g id="shape54-122" v:mID="54" v:groupContext="shape">
				<title>Sheet.54</title>
				<path d="M72 612 L0 612 L72 612 Z" class="st6"/>
			</g>
			<g id="shape55-125" v:mID="55" v:groupContext="shape" transform="translate(72,0)">
				<title>Sheet.55</title>
				<path d="M0 612 L0 576 L0 612 Z" class="st6"/>
				<path d="" class="st7"/>
			</g>
			<g id="shape56-128" v:mID="56" v:groupContext="shape">
				<title>Sheet.56</title>
				<desc>Inbound Authentication Framework</desc>
				<v:textBlock v:margins="rect(4,4,4,4)"/>
				<v:textRect cx="36" cy="594" width="72" height="36"/>
				<path d="M72 612 L72 576 L0 576 L0 612 L72 612 ZM72 612 L72 576 L0 576 L72 576 L72 612 Z" class="st6"/>
				<path d="M72 612 L72 576" class="st7"/>
				<path d="M0 612 L0 576" class="st7"/>
				<path d="M0 612 L72 612" class="st7"/>
				<path d="M72 612 L72 576" class="st7"/>
				<path d="M0 576 L72 576" class="st7"/>
				<text x="22.05" y="586.8" class="st8" v:langID="1033"><v:paragraph v:horizAlign="1"/><v:tabList/>Inbound <tspan
							x="11.05" dy="1.2em" class="st9">Authentication </tspan><tspan x="17.03" dy="1.2em" class="st9">Framework</tspan></text>			</g>
			<g id="shape57-138" v:mID="57" v:groupContext="shape" transform="translate(58.5,-22.5)">
				<title>Sheet.57</title>
				<path d="M0 612 L9 612 L9 603 L0 603 L0 604.8 L1.8 604.8 L1.8 606.6 L0 606.6 L0 608.4 L1.8 608.4 L1.8 610.2 L0 610.2
							 L0 612 ZM-1.8 610.2 L1.8 610.2 L1.8 608.4 L-1.8 608.4 L-1.8 610.2 ZM-1.8 606.6 L1.8 606.6 L1.8 604.8
							 L-1.8 604.8 L-1.8 606.6 Z" class="st1"/>
			</g>
		</g>
		<g id="shape58-140" v:mID="58" v:groupContext="shape" transform="translate(441.6,725.4) scale(1,-1)">
			<title>Lifeline.58</title>
			<path d="M0 612 L0 185.4" class="st3"/>
		</g>
		<g id="group59-143" transform="translate(45,-489.6)" v:mID="59" v:groupContext="group">
			<title>Sheet.59</title>
			<g id="group14-144" v:mID="14" v:groupContext="group">
				<v:custProps>
					<v:cp v:nameU="AssetNumber" v:lbl="Asset Number" v:prompt="" v:type="0" v:format="" v:sortKey="Asset"
							v:invis="false" v:ask="false" v:langID="1033" v:cal="0"/>
					<v:cp v:nameU="SerialNumber" v:lbl="Serial Number" v:prompt="" v:type="0" v:format="" v:sortKey="Asset"
							v:invis="false" v:ask="false" v:langID="1033" v:cal="0"/>
					<v:cp v:nameU="Location" v:lbl="Location" v:prompt="" v:type="0" v:format="" v:sortKey="Asset" v:invis="false"
							v:ask="false" v:langID="1033" v:cal="0"/>
					<v:cp v:nameU="Building" v:lbl="Building" v:prompt="" v:type="0" v:format="" v:sortKey="Asset" v:invis="false"
							v:ask="false" v:langID="1033" v:cal="0"/>
					<v:cp v:nameU="Room" v:lbl="Room" v:prompt="" v:type="0" v:format="" v:sortKey="Asset" v:invis="false"
							v:ask="false" v:langID="1033" v:cal="0"/>
					<v:cp v:nameU="Manufacturer" v:lbl="Manufacturer" v:prompt="" v:type="0" v:format="" v:sortKey="Equipment"
							v:invis="false" v:ask="false" v:langID="1033" v:cal="0"/>
					<v:cp v:nameU="ProductNumber" v:lbl="Product Number" v:prompt="" v:type="0" v:format="" v:sortKey="Equipment"
							v:invis="false" v:ask="false" v:langID="1033" v:cal="0"/>
					<v:cp v:nameU="PartNumber" v:lbl="Part Number" v:prompt="" v:type="0" v:format="" v:sortKey="Equipment"
							v:invis="false" v:ask="false" v:langID="1033" v:cal="0"/>
					<v:cp v:nameU="ProductDescription" v:lbl="Product Description" v:prompt="" v:type="0" v:format=""
							v:sortKey="Equipment" v:invis="false" v:ask="false" v:langID="1033" v:cal="0"/>
					<v:cp v:nameU="NetworkName" v:lbl="Network Name" v:prompt="" v:type="0" v:format="" v:sortKey="Network"
							v:invis="false" v:ask="false" v:langID="1033" v:cal="0"/>
					<v:cp v:nameU="IPAddress" v:lbl="IP Address" v:prompt="" v:type="0" v:format="" v:sortKey="Network"
							v:invis="false" v:ask="false" v:langID="1033" v:cal="0"/>
					<v:cp v:nameU="SubnetMask" v:lbl="Subnet Mask" v:prompt="" v:type="0" v:format="" v:sortKey="Network"
							v:invis="false" v:ask="false" v:langID="1033" v:cal="0"/>
					<v:cp v:nameU="AdminInterface" v:lbl="Administrative Interface" v:prompt="" v:type="0" v:format=""
							v:sortKey="Network" v:invis="false" v:ask="false" v:langID="1033" v:cal="0"/>
					<v:cp v:nameU="NumberofPorts" v:lbl="Number of Ports" v:prompt="" v:type="0" v:format="" v:sortKey="Network"
							v:invis="false" v:ask="false" v:langID="1033" v:cal="0"/>
					<v:cp v:nameU="CommunityString" v:lbl="Community String" v:prompt="" v:type="0" v:format="" v:sortKey="Network"
							v:invis="false" v:ask="false" v:langID="1033" v:cal="0"/>
					<v:cp v:nameU="NetworkDescription" v:lbl="Network Description" v:prompt="" v:type="0" v:format=""
							v:sortKey="Network" v:invis="false" v:ask="false" v:langID="1033" v:cal="0"/>
					<v:cp v:nameU="MACAddress" v:lbl="MAC Address" v:prompt="" v:type="0" v:format="" v:sortKey="Network"
							v:invis="false" v:ask="false" v:langID="1033" v:cal="0"/>
					<v:cp v:nameU="CPU" v:lbl="CPU" v:prompt="" v:type="0" v:format="" v:sortKey="Workstation" v:invis="false"
							v:ask="false" v:langID="1033" v:cal="0"/>
					<v:cp v:nameU="Memory" v:lbl="Memory" v:prompt="" v:type="0" v:format="" v:sortKey="Workstation"
							v:invis="false" v:ask="false" v:langID="1033" v:cal="0"/>
					<v:cp v:nameU="OperatingSystem" v:lbl="Operating System" v:prompt="" v:type="0" v:format=""
							v:sortKey="Workstation" v:invis="false" v:ask="false" v:langID="1033" v:cal="0"/>
					<v:cp v:nameU="HardDriveSize" v:lbl="Hard Drive Capacity" v:prompt="" v:type="0" v:format=""
							v:sortKey="Workstation" v:invis="false" v:ask="false" v:langID="1033" v:cal="0"/>
					<v:cp v:nameU="ShapeClass" v:lbl="ShapeClass" v:prompt="" v:type="0" v:format="" v:sortKey="" v:invis="true"
							v:ask="false" v:langID="1033" v:cal="0" v:val="VT4(Equipment)"/>
					<v:cp v:nameU="ShapeType" v:lbl="ShapeType" v:prompt="" v:type="0" v:format="" v:sortKey="" v:invis="true"
							v:ask="false" v:langID="1033" v:cal="0" v:val="VT4(Computer)"/>
					<v:cp v:nameU="SubShapeType" v:lbl="SubShapeType" v:prompt="" v:type="0" v:format="" v:sortKey=""
							v:invis="true" v:ask="false" v:langID="1033" v:cal="0" v:val="VT4(Laptop)"/>
				</v:custProps>
				<v:userDefs>
					<v:ud v:nameU="visVersion" v:prompt="" v:val="VT0(15):26"/>
					<v:ud v:nameU="ShapeClass" v:prompt="" v:val="VT0(5):26"/>
					<v:ud v:nameU="SolSH" v:prompt="" v:val="VT15({BF0433D9-CD73-4EB5-8390-8653BE590246}):41"/>
					<v:ud v:nameU="visLegendShape" v:prompt="" v:val="VT0(2):26"/>
				</v:userDefs>
				<title>Laptop</title>
				<g id="shape15-145" v:mID="15" v:groupContext="shape" transform="translate(0,-6.66644)">
					<title>Sheet.15</title>
					<path d="M0 612 L72 612 L72 604.45 L65.83 594.03 L5.81 594.03 L0 604.45 L0 612 ZM66.03 592.32 L66.03 559.36 C66.03
								 556.03 63.33 553.33 60.01 553.33 L11.83 553.33 C8.5 553.33 5.8 556.03 5.8 559.36 L5.8 592.32 L66.03
								 592.32 Z" class="st10"/>
				</g>
				<g id="shape16-147" v:mID="16" v:groupContext="shape" transform="translate(7.08404,-15.0632)">
					<title>Sheet.16</title>
					<v:userDefs>
						<v:ud v:nameU="SurroundingRegionColor" v:prompt="" v:val="VT0(1):26"/>
					</v:userDefs>
					<path d="M2.91 606.8 L0 612 L57.7 612 L54.8 606.8 L2.91 606.8 Z" class="st11"/>
				</g>
				<g id="shape17-150" v:mID="17" v:groupContext="shape" transform="translate(11.6087,-32.6198)">
					<title>Sheet.17</title>
					<v:userDefs>
						<v:ud v:nameU="SurroundingRegionColor" v:prompt="" v:val="VT0(1):26"/>
					</v:userDefs>
					<rect x="0" y="584.923" width="48.7834" height="27.0773" class="st10"/>
				</g>
			</g>
			<g id="shape18-152" v:mID="18" v:groupContext="shape" transform="translate(13.2,-40.2)">
				<title>Sheet.18</title>
				<desc>Browser</desc>
				<v:textBlock v:margins="rect(4,4,4,4)"/>
				<v:textRect cx="22.5" cy="605.25" width="45" height="13.5"/>
				<rect x="0" y="598.5" width="45" height="13.5" class="st4"/>
				<text x="8.67" y="607.65" class="st8" v:langID="1033"><v:paragraph v:horizAlign="1"/><v:tabList/>Browser</text>			</g>
		</g>
		<g id="shape64-155" v:mID="64" v:groupContext="shape" transform="translate(81,-471.6)">
			<title>Message (seq.diag)</title>
			<desc>Logout</desc>
			<v:userDefs>
				<v:ud v:nameU="State" v:val="VT0(1):26"/>
				<v:ud v:nameU="LostFound" v:val="VT0(0):26"/>
				<v:ud v:nameU="State" v:prompt="" v:val="VT0(2):26"/>
			</v:userDefs>
			<v:textBlock v:margins="rect(4,4,4,4)"/>
			<v:textRect cx="67.5" cy="603" width="32.27" height="17.6036"/>
			<path d="M0 612 L126.72 612" class="st12"/>
			<rect v:rectContext="textBkgnd" x="55.3696" y="598.2" width="22.4489" height="9.59985" class="st14"/>
			<text x="55.37" y="605.4" class="st15" v:langID="1033"><v:paragraph/><v:tabList/>Logout</text>		</g>
		<g id="shape65-163" v:mID="65" v:groupContext="shape" transform="translate(81,-435.6)">
			<title>Message (seq.diag).65</title>
			<desc>HTTP request to end_session endpoint</desc>
			<v:userDefs>
				<v:ud v:nameU="State" v:val="VT0(1):26"/>
				<v:ud v:nameU="LostFound" v:val="VT0(0):26"/>
				<v:ud v:nameU="State" v:prompt="" v:val="VT0(2):26"/>
			</v:userDefs>
			<v:textBlock v:margins="rect(4,4,4,4)"/>
			<v:textRect cx="94.5" cy="606.6" width="135.35" height="17.6036"/>
			<path d="M0 612 L239.52 612" class="st12"/>
			<rect v:rectContext="textBkgnd" x="30.8271" y="601.8" width="125.534" height="9.59985" class="st14"/>
			<text x="30.83" y="609" class="st15" v:langID="1033"><v:paragraph/><v:tabList/>HTTP request to end_session endpoint</text>		</g>
		<g id="shape67-170" v:mID="67" v:groupContext="shape" transform="translate(328.8,806.4) rotate(180)">
			<title>Message (seq.diag).67</title>
			<desc>Logout propagation page with iframes</desc>
			<v:userDefs>
				<v:ud v:nameU="State" v:val="VT0(1):26"/>
				<v:ud v:nameU="LostFound" v:val="VT0(0):26"/>
				<v:ud v:nameU="State" v:prompt="" v:val="VT0(5):26"/>
			</v:userDefs>
			<v:textBlock v:margins="rect(4,4,4,4)"/>
			<v:textRect cx="121.8" cy="617.4" width="133.9" height="17.6036" transform="rotate(180)"/>
			<path d="M0 612 L247.8 612" class="st16"/>
			<rect v:rectContext="textBkgnd" x="-184.746" y="-622.2" width="124.081" height="9.59985" transform="rotate(180)"
					class="st14"/>
			<text x="-184.75" y="-615" transform="rotate(180)" class="st15" v:langID="1033"><v:paragraph/><v:tabList/>Logout propagation page with iframes</text>		</g>
		<g id="shape68-178" v:mID="68" v:groupContext="shape" transform="translate(81,-363.6)">
			<title>Message (seq.diag).68</title>
			<desc>OIDC front-channel logout request (asynchronous, in iframe)</desc>
			<v:userDefs>
				<v:ud v:nameU="State" v:val="VT0(1):26"/>
				<v:ud v:nameU="LostFound" v:val="VT0(0):26"/>
			</v:userDefs>
			<v:textBlock v:margins="rect(4,4,4,4)"/>
			<v:textRect cx="180" cy="606.6" width="206.77" height="17.6036"/>
			<path d="M0 612 L360.6 612" class="st17"/>
			<rect v:rectContext="textBkgnd" x="80.6201" y="601.8" width="196.948" height="9.59985" class="st14"/>
			<text x="80.62" y="609" class="st15" v:langID="1033"><v:paragraph/><v:tabList/>OIDC front-channel logout request (asynchronous, in iframe)</text>		</g>
		<g id="shape69-185" v:mID="69" v:groupContext="shape" transform="translate(81,-399.6)">
			<title>Message (seq.diag).69</title>
			<desc>OIDC front-channel logout request (asynchronous, in iframe)</desc>
			<v:userDefs>
				<v:ud v:nameU="State" v:val="VT0(1):26"/>
				<v:ud v:nameU="LostFound" v:val="VT0(0):26"/>
			</v:userDefs>
			<v:textBlock v:margins="rect(4,4,4,4)"/>
			<v:textRect cx="255.938" cy="606.6" width="206.77" height="17.6036"/>
			<path d="M0 612 L585.6 612" class="st17"/>
			<rect v:rectContext="textBkgnd" x="156.558" y="601.8" width="196.948" height="9.59985" class="st14"/>
			<text x="156.56" y="609" class="st15" v:langID="1033"><v:paragraph/><v:tabList/>OIDC front-channel logout request (asynchronous, in iframe)</text>		</g>
		<g id="shape71-192" v:mID="71" v:groupContext="shape" transform="translate(441.6,878.4) rotate(180)">
			<title>Message (seq.diag).71</title>
			<desc>HTTP redirect with SAML Logout Request</desc>
			<v:userDefs>
				<v:ud v:nameU="State" v:val="VT0(1):26"/>
				<v:ud v:nameU="LostFound" v:val="VT0(0):26"/>
				<v:ud v:nameU="State" v:prompt="" v:val="VT0(5):26"/>
			</v:userDefs>
			<v:textBlock v:margins="rect(4,4,4,4)"/>
			<v:textRect cx="180.6" cy="617.4" width="143.33" height="17.6036" transform="rotate(180)"/>
			<path d="M0 612 L360.6 612" class="st16"/>
			<rect v:rectContext="textBkgnd" x="-248.261" y="-622.2" width="133.51" height="9.59985" transform="rotate(180)"
					class="st14"/>
			<text x="-248.26" y="-615" transform="rotate(180)" class="st15" v:langID="1033"><v:paragraph/><v:tabList/>HTTP redirect with SAML Logout Request</text>		</g>
		<g id="shape73-199" v:mID="73" v:groupContext="shape" transform="translate(666.6,842.4) rotate(180)">
			<title>Message (seq.diag).73</title>
			<desc>Response (in iframe)</desc>
			<v:userDefs>
				<v:ud v:nameU="State" v:val="VT0(1):26"/>
				<v:ud v:nameU="LostFound" v:val="VT0(0):26"/>
				<v:ud v:nameU="State" v:prompt="" v:val="VT0(5):26"/>
			</v:userDefs>
			<v:textBlock v:margins="rect(4,4,4,4)"/>
			<v:textRect cx="410.1" cy="617.4" width="76.78" height="17.6036" transform="rotate(180)"/>
			<path d="M0 612 L585.6 612" class="st16"/>
			<rect v:rectContext="textBkgnd" x="-444.488" y="-622.2" width="66.9641" height="9.59985" transform="rotate(180)"
					class="st14"/>
			<text x="-444.49" y="-615" transform="rotate(180)" class="st15" v:langID="1033"><v:paragraph/><v:tabList/>Response (in iframe)</text>		</g>
		<g id="shape129-206" v:mID="129" v:groupContext="shape" transform="translate(81,-327.6)">
			<title>Message (seq.diag).129</title>
			<desc>SAML Logout Request</desc>
			<v:userDefs>
				<v:ud v:nameU="State" v:val="VT0(1):26"/>
				<v:ud v:nameU="LostFound" v:val="VT0(0):26"/>
				<v:ud v:nameU="State" v:prompt="" v:val="VT0(2):26"/>
			</v:userDefs>
			<v:textBlock v:margins="rect(4,4,4,4)"/>
			<v:textRect cx="193.5" cy="606.6" width="80.91" height="17.6036"/>
			<path d="M0 612 L460.32 612" class="st12"/>
			<rect v:rectContext="textBkgnd" x="157.048" y="601.8" width="71.0928" height="9.59985" class="st14"/>
			<text x="157.05" y="609" class="st15" v:langID="1033"><v:paragraph/><v:tabList/>SAML Logout Request</text>		</g>
		<g id="shape131-213" v:mID="131" v:groupContext="shape" transform="translate(81,-273.6)">
			<title>Message (seq.diag).131</title>
			<desc>SAML logout response</desc>
			<v:userDefs>
				<v:ud v:nameU="State" v:val="VT0(1):26"/>
				<v:ud v:nameU="LostFound" v:val="VT0(0):26"/>
				<v:ud v:nameU="State" v:prompt="" v:val="VT0(2):26"/>
			</v:userDefs>
			<v:textBlock v:margins="rect(4,4,4,4)"/>
			<v:textRect cx="180" cy="606.6" width="82.5" height="17.6036"/>
			<path d="M0 612 L352.32 612" class="st12"/>
			<rect v:rectContext="textBkgnd" x="142.755" y="601.8" width="72.679" height="9.59985" class="st14"/>
			<text x="142.75" y="609" class="st15" v:langID="1033"><v:paragraph/><v:tabList/>SAML logout response</text>		</g>
		<g id="shape132-220" v:mID="132" v:groupContext="shape" transform="translate(441.6,968.4) rotate(180)">
			<title>Message (seq.diag).132</title>
			<desc>Response (in iframe)</desc>
			<v:userDefs>
				<v:ud v:nameU="State" v:val="VT0(1):26"/>
				<v:ud v:nameU="LostFound" v:val="VT0(0):26"/>
				<v:ud v:nameU="State" v:prompt="" v:val="VT0(5):26"/>
			</v:userDefs>
			<v:textBlock v:margins="rect(4,4,4,4)"/>
			<v:textRect cx="185.1" cy="617.4" width="76.78" height="17.6036" transform="rotate(180)"/>
			<path d="M0 612 L360.6 612" class="st16"/>
			<rect v:rectContext="textBkgnd" x="-219.488" y="-622.2" width="66.9641" height="9.59985" transform="rotate(180)"
					class="st14"/>
			<text x="-219.49" y="-615" transform="rotate(180)" class="st15" v:langID="1033"><v:paragraph/><v:tabList/>Response (in iframe)</text>		</g>
		<g id="shape135-227" v:mID="135" v:groupContext="shape" transform="translate(328.8,770.4) rotate(180)">
			<title>Message (seq.diag).135</title>
			<desc>HTTP redirect to end_session endpoint</desc>
			<v:userDefs>
				<v:ud v:nameU="State" v:val="VT0(1):26"/>
				<v:ud v:nameU="LostFound" v:val="VT0(0):26"/>
				<v:ud v:nameU="State" v:prompt="" v:val="VT0(5):26"/>
			</v:userDefs>
			<v:textBlock v:margins="rect(4,4,4,4)"/>
			<v:textRect cx="121.8" cy="617.4" width="136.03" height="17.6036" transform="rotate(180)"/>
			<path d="M0 612 L247.8 612" class="st16"/>
			<rect v:rectContext="textBkgnd" x="-185.811" y="-622.2" width="126.21" height="9.59985" transform="rotate(180)"
					class="st14"/>
			<text x="-185.81" y="-615" transform="rotate(180)" class="st15" v:langID="1033"><v:paragraph/><v:tabList/>HTTP redirect to end_session endpoint</text>		</g>
		<g id="shape136-234" v:mID="136" v:groupContext="shape" transform="translate(549.6,932.4) rotate(180)">
			<title>Message (seq.diag).136</title>
			<desc>HTTP redirect with SAML logout response</desc>
			<v:userDefs>
				<v:ud v:nameU="State" v:val="VT0(1):26"/>
				<v:ud v:nameU="LostFound" v:val="VT0(0):26"/>
				<v:ud v:nameU="State" v:prompt="" v:val="VT0(5):26"/>
			</v:userDefs>
			<v:textBlock v:margins="rect(4,4,4,4)"/>
			<v:textRect cx="275.1" cy="617.4" width="144.91" height="17.6036" transform="rotate(180)"/>
			<path d="M0 612 L468.6 612" class="st16"/>
			<rect v:rectContext="textBkgnd" x="-343.554" y="-622.2" width="135.096" height="9.59985" transform="rotate(180)"
					class="st14"/>
			<text x="-343.55" y="-615" transform="rotate(180)" class="st15" v:langID="1033"><v:paragraph/><v:tabList/>HTTP redirect with SAML logout response</text>		</g>
		<g id="shape140-241" v:mID="140" v:groupContext="shape" transform="translate(-62.4,293.4) rotate(-90)">
			<title>Message to self</title>
			<v:userDefs>
				<v:ud v:nameU="State" v:val="VT0(1):26"/>
				<v:ud v:nameU="State" v:prompt="" v:val="VT0(2):26"/>
			</v:userDefs>
			<path d="M0 612 L0 638.4 L-18 638.4 L-18 620.28" class="st12"/>
		</g>
		<g id="shape145-246" v:mID="145" v:groupContext="shape" transform="translate(-531,365.4) rotate(-90)">
			<title>Message to self.145</title>
			<desc>Wait for &#38; check responses</desc>
			<v:userDefs>
				<v:ud v:nameU="State" v:val="VT0(1):26"/>
				<v:ud v:nameU="State" v:prompt="" v:val="VT0(2):26"/>
			</v:userDefs>
			<v:textBlock v:margins="rect(4,4,4,4)"/>
			<v:textRect cx="-9" cy="670.5" width="98.77" height="17.6036" transform="rotate(90)"/>
			<path d="M0 612 L0 670.5 L-18 670.5 L-18 620.28" class="st12"/>
			<rect v:rectContext="textBkgnd" x="625.118" y="4.20026" width="88.9525" height="9.59985" transform="rotate(90)"
					class="st14"/>
			<text x="625.12" y="11.4" transform="rotate(90)" class="st15" v:langID="1033"><v:paragraph/><v:tabList/>Wait for &#38; check responses</text>		</g>
		<g id="group157-253" transform="translate(587,-297.4)" v:mID="157" v:groupContext="group">
			<v:userDefs>
				<v:ud v:nameU="Row_1" v:val="VT0(0):26"/>
				<v:ud v:nameU="MoveText" v:val="VT0(0):26"/>
				<v:ud v:nameU="Row_3" v:val="VT0(0):26"/>
				<v:ud v:nameU="Row_4" v:val="VT0(0):26"/>
				<v:ud v:nameU="Row_5" v:val="VT0(0):26"/>
				<v:ud v:nameU="Row_6" v:val="VT0(0):26"/>
				<v:ud v:nameU="Row_7" v:val="VT0(0):26"/>
				<v:ud v:nameU="Row_8" v:val="VT0(0):26"/>
				<v:ud v:nameU="Row_9" v:val="VT0(0):26"/>
				<v:ud v:nameU="Row_10" v:val="VT0(0):26"/>
			</v:userDefs>
			<title>Interaction Use</title>
			<desc>SAML Logout</desc>
			<g id="shape158-254" v:mID="158" v:groupContext="shape" transform="translate(-9,0)">
				<title>Sheet.158</title>
				<v:userDefs>
					<v:ud v:nameU="HideText"/>
					<v:ud v:nameU="MoveText" v:val="VT0(0):26"/>
				</v:userDefs>
				<rect x="0" y="590.4" width="84.9" height="21.6" class="st1"/>
			</g>
			<g id="shape159-256" v:mID="159" v:groupContext="shape" transform="translate(-9,0)">
				<title>Sheet.159</title>
				<desc>[guard]</desc>
				<v:userDefs>
					<v:ud v:nameU="HideText" v:val="VT0(0):26"/>
					<v:ud v:nameU="MoveText" v:val="VT0(0):26"/>
					<v:ud v:nameU="HideLine" v:val="VT0(0):26"/>
				</v:userDefs>
				<v:textBlock v:margins="rect(4,4,4,4)"/>
				<v:textRect cx="70.46" cy="621" width="33.52" height="17.6036"/>
			</g>
			<g id="shape160-258" v:mID="160" v:groupContext="shape" transform="translate(-9,0)">
				<title>Sheet.160</title>
				<desc>[guard]</desc>
				<v:userDefs>
					<v:ud v:nameU="HideText" v:val="VT0(0):26"/>
					<v:ud v:nameU="MoveText" v:val="VT0(0):26"/>
					<v:ud v:nameU="HideLine" v:val="VT0(0):26"/>
				</v:userDefs>
				<v:textBlock v:margins="rect(4,4,4,4)"/>
				<v:textRect cx="42.45" cy="621" width="33.52" height="17.6036"/>
			</g>
			<g id="shape161-260" v:mID="161" v:groupContext="shape" transform="translate(-9,0)">
				<title>Sheet.161</title>
				<desc>[guard]</desc>
				<v:userDefs>
					<v:ud v:nameU="HideText" v:val="VT0(0):26"/>
					<v:ud v:nameU="MoveText" v:val="VT0(0):26"/>
					<v:ud v:nameU="HideLine" v:val="VT0(0):26"/>
				</v:userDefs>
				<v:textBlock v:margins="rect(4,4,4,4)"/>
				<v:textRect cx="42.45" cy="621" width="33.52" height="17.6036"/>
			</g>
			<g id="shape162-262" v:mID="162" v:groupContext="shape" transform="translate(-9,0)">
				<title>Sheet.162</title>
				<desc>[guard]</desc>
				<v:userDefs>
					<v:ud v:nameU="HideText" v:val="VT0(0):26"/>
					<v:ud v:nameU="MoveText" v:val="VT0(0):26"/>
					<v:ud v:nameU="HideLine" v:val="VT0(0):26"/>
				</v:userDefs>
				<v:textBlock v:margins="rect(4,4,4,4)"/>
				<v:textRect cx="42.45" cy="621" width="33.52" height="17.6036"/>
			</g>
			<g id="shape163-264" v:mID="163" v:groupContext="shape" transform="translate(-9,0)">
				<title>Sheet.163</title>
				<desc>[guard]</desc>
				<v:userDefs>
					<v:ud v:nameU="HideText" v:val="VT0(0):26"/>
					<v:ud v:nameU="MoveText" v:val="VT0(0):26"/>
					<v:ud v:nameU="HideLine" v:val="VT0(0):26"/>
				</v:userDefs>
				<v:textBlock v:margins="rect(4,4,4,4)"/>
				<v:textRect cx="42.45" cy="621" width="33.52" height="17.6036"/>
			</g>
			<g id="shape164-266" v:mID="164" v:groupContext="shape" transform="translate(-9,0)">
				<title>Sheet.164</title>
				<desc>[guard]</desc>
				<v:userDefs>
					<v:ud v:nameU="HideText" v:val="VT0(0):26"/>
					<v:ud v:nameU="MoveText" v:val="VT0(0):26"/>
					<v:ud v:nameU="HideLine" v:val="VT0(0):26"/>
				</v:userDefs>
				<v:textBlock v:margins="rect(4,4,4,4)"/>
				<v:textRect cx="42.45" cy="621" width="33.52" height="17.6036"/>
			</g>
			<g id="shape165-268" v:mID="165" v:groupContext="shape" transform="translate(-9,0)">
				<title>Sheet.165</title>
				<desc>[guard]</desc>
				<v:userDefs>
					<v:ud v:nameU="HideText" v:val="VT0(0):26"/>
					<v:ud v:nameU="MoveText" v:val="VT0(0):26"/>
					<v:ud v:nameU="HideLine" v:val="VT0(0):26"/>
				</v:userDefs>
				<v:textBlock v:margins="rect(4,4,4,4)"/>
				<v:textRect cx="42.45" cy="621" width="33.52" height="17.6036"/>
			</g>
			<g id="shape166-270" v:mID="166" v:groupContext="shape" transform="translate(-9,0)">
				<title>Sheet.166</title>
				<desc>[guard]</desc>
				<v:userDefs>
					<v:ud v:nameU="HideText" v:val="VT0(0):26"/>
					<v:ud v:nameU="MoveText" v:val="VT0(0):26"/>
					<v:ud v:nameU="HideLine" v:val="VT0(0):26"/>
				</v:userDefs>
				<v:textBlock v:margins="rect(4,4,4,4)"/>
				<v:textRect cx="42.45" cy="621" width="33.52" height="17.6036"/>
			</g>
			<g id="shape167-272" v:mID="167" v:groupContext="shape" transform="translate(-9,-3.60001)">
				<title>Sheet.167</title>
				<desc>ref</desc>
				<v:userDefs>
					<v:ud v:nameU="Row_1" v:val="VT0(0):26"/>
					<v:ud v:nameU="Row_2" v:val="VT0(0):26"/>
					<v:ud v:nameU="Row_3" v:prompt="" v:val="VT0(0):26"/>
				</v:userDefs>
				<v:textBlock v:margins="rect(4,4,4,4)"/>
				<v:textRect cx="13.5" cy="603" width="19.22" height="18"/>
				<path d="M0 612 L18 612 L27 603 L27 594 L0 594 L0 612 Z" class="st1"/>
				<text x="8.8" y="605.4" class="st8" v:langID="1030"><v:paragraph v:horizAlign="1"/><v:tabList/>ref</text>			</g>
			<g id="shape157-275" v:mID="157" v:groupContext="groupContent">
				<v:textBlock v:margins="rect(4,4,4,4)"/>
				<v:textRect cx="44.2887" cy="601.2" width="52.58" height="17.6036"/>
				<rect v:rectContext="textBkgnd" x="22.9062" y="596.4" width="42.7651" height="9.59985" class="st14"/>
				<text x="22.91" y="603.6" class="st15" v:langID="1033"><v:paragraph v:horizAlign="1"/><v:tabList/>SAML Logout</text>			</g>
		</g>
		<g id="group226-278" transform="translate(67.5,-148.5)" v:mID="226" v:groupContext="group">
			<v:userDefs>
				<v:ud v:nameU="Row_1" v:val="VT0(0):26"/>
				<v:ud v:nameU="MoveText" v:val="VT0(0):26"/>
				<v:ud v:nameU="Row_3" v:val="VT0(0):26"/>
				<v:ud v:nameU="Row_4" v:val="VT0(0):26"/>
				<v:ud v:nameU="Row_5" v:val="VT0(0):26"/>
				<v:ud v:nameU="Row_6" v:val="VT0(0):26"/>
				<v:ud v:nameU="Row_7" v:val="VT0(0):26"/>
				<v:ud v:nameU="Row_8" v:val="VT0(0):26"/>
				<v:ud v:nameU="Row_9" v:val="VT0(0):26"/>
				<v:ud v:nameU="Row_10" v:val="VT0(0):26"/>
			</v:userDefs>
			<title>Diagram, Frame</title>
			<g id="shape227-279" v:mID="227" v:groupContext="shape">
				<title>Sheet.227</title>
				<v:userDefs>
					<v:ud v:nameU="HideText"/>
					<v:ud v:nameU="MoveText" v:val="VT0(0):26"/>
				</v:userDefs>
				<rect x="0" y="540" width="283.5" height="72" class="st18"/>
				<rect x="0" y="540" width="283.5" height="72" class="st7"/>
			</g>
			<g id="shape228-282" v:mID="228" v:groupContext="shape">
				<title>Sheet.228</title>
				<desc>[guard]</desc>
				<v:userDefs>
					<v:ud v:nameU="HideText" v:val="VT0(0):26"/>
					<v:ud v:nameU="MoveText" v:val="VT0(0):26"/>
					<v:ud v:nameU="HideLine" v:val="VT0(0):26"/>
				</v:userDefs>
				<v:textBlock v:margins="rect(4,4,4,4)"/>
				<v:textRect cx="53.76" cy="621" width="33.52" height="17.6036"/>
			</g>
			<g id="shape229-284" v:mID="229" v:groupContext="shape">
				<title>Sheet.229</title>
				<desc>[guard]</desc>
				<v:userDefs>
					<v:ud v:nameU="HideText" v:val="VT0(0):26"/>
					<v:ud v:nameU="MoveText" v:val="VT0(0):26"/>
					<v:ud v:nameU="HideLine" v:val="VT0(0):26"/>
				</v:userDefs>
				<v:textBlock v:margins="rect(4,4,4,4)"/>
				<v:textRect cx="141.75" cy="621" width="33.52" height="17.6036"/>
			</g>
			<g id="shape230-286" v:mID="230" v:groupContext="shape">
				<title>Sheet.230</title>
				<desc>[guard]</desc>
				<v:userDefs>
					<v:ud v:nameU="HideText" v:val="VT0(0):26"/>
					<v:ud v:nameU="MoveText" v:val="VT0(0):26"/>
					<v:ud v:nameU="HideLine" v:val="VT0(0):26"/>
				</v:userDefs>
				<v:textBlock v:margins="rect(4,4,4,4)"/>
				<v:textRect cx="141.75" cy="621" width="33.52" height="17.6036"/>
			</g>
			<g id="shape231-288" v:mID="231" v:groupContext="shape">
				<title>Sheet.231</title>
				<desc>[guard]</desc>
				<v:userDefs>
					<v:ud v:nameU="HideText" v:val="VT0(0):26"/>
					<v:ud v:nameU="MoveText" v:val="VT0(0):26"/>
					<v:ud v:nameU="HideLine" v:val="VT0(0):26"/>
				</v:userDefs>
				<v:textBlock v:margins="rect(4,4,4,4)"/>
				<v:textRect cx="141.75" cy="621" width="33.52" height="17.6036"/>
			</g>
			<g id="shape232-290" v:mID="232" v:groupContext="shape">
				<title>Sheet.232</title>
				<desc>[guard]</desc>
				<v:userDefs>
					<v:ud v:nameU="HideText" v:val="VT0(0):26"/>
					<v:ud v:nameU="MoveText" v:val="VT0(0):26"/>
					<v:ud v:nameU="HideLine" v:val="VT0(0):26"/>
				</v:userDefs>
				<v:textBlock v:margins="rect(4,4,4,4)"/>
				<v:textRect cx="141.75" cy="621" width="33.52" height="17.6036"/>
			</g>
			<g id="shape233-292" v:mID="233" v:groupContext="shape">
				<title>Sheet.233</title>
				<desc>[guard]</desc>
				<v:userDefs>
					<v:ud v:nameU="HideText" v:val="VT0(0):26"/>
					<v:ud v:nameU="MoveText" v:val="VT0(0):26"/>
					<v:ud v:nameU="HideLine" v:val="VT0(0):26"/>
				</v:userDefs>
				<v:textBlock v:margins="rect(4,4,4,4)"/>
				<v:textRect cx="141.75" cy="621" width="33.52" height="17.6036"/>
			</g>
			<g id="shape234-294" v:mID="234" v:groupContext="shape">
				<title>Sheet.234</title>
				<desc>[guard]</desc>
				<v:userDefs>
					<v:ud v:nameU="HideText" v:val="VT0(0):26"/>
					<v:ud v:nameU="MoveText" v:val="VT0(0):26"/>
					<v:ud v:nameU="HideLine" v:val="VT0(0):26"/>
				</v:userDefs>
				<v:textBlock v:margins="rect(4,4,4,4)"/>
				<v:textRect cx="141.75" cy="621" width="33.52" height="17.6036"/>
			</g>
			<g id="shape235-296" v:mID="235" v:groupContext="shape">
				<title>Sheet.235</title>
				<desc>[guard]</desc>
				<v:userDefs>
					<v:ud v:nameU="HideText" v:val="VT0(0):26"/>
					<v:ud v:nameU="MoveText" v:val="VT0(0):26"/>
					<v:ud v:nameU="HideLine" v:val="VT0(0):26"/>
				</v:userDefs>
				<v:textBlock v:margins="rect(4,4,4,4)"/>
				<v:textRect cx="141.75" cy="621" width="33.52" height="17.6036"/>
			</g>
			<g id="shape236-298" v:mID="236" v:groupContext="shape" transform="translate(0,-54)">
				<title>Sheet.236</title>
				<desc>alt</desc>
				<v:userDefs>
					<v:ud v:nameU="Row_1" v:val="VT0(0):26"/>
					<v:ud v:nameU="Row_2" v:val="VT0(0):26"/>
				</v:userDefs>
				<v:textBlock v:margins="rect(4,4,4,4)"/>
				<v:textRect cx="28.61" cy="603" width="18.5" height="18"/>
				<path d="M0 612 L48.22 612 L57.22 603 L57.22 594 L0 594 L0 612 Z" class="st1"/>
				<text x="24.27" y="605.4" class="st8" v:langID="1033"><v:paragraph v:horizAlign="1"/><v:tabList/>alt</text>			</g>
		</g>
		<g id="shape237-301" v:mID="237" v:groupContext="shape" transform="translate(84,-187)">
			<title>Sheet.237</title>
			<desc>[logout problem]</desc>
			<v:textBlock v:margins="rect(4,4,4,4)"/>
			<v:textRect cx="33" cy="602" width="66.01" height="20"/>
			<rect x="0" y="592" width="66" height="20" class="st4"/>
			<rect v:rectContext="textBkgnd" x="4.00012" y="597.2" width="55.2574" height="9.59985" class="st14"/>
			<text x="4" y="604.4" class="st15" v:langID="1033"><v:paragraph/><v:tabList/>[logout problem]</text>		</g>
		<g id="shape239-305" v:mID="239" v:groupContext="shape" transform="translate(81,-183.6)">
			<title>Message (seq.diag).239</title>
			<desc>HTTP request for error page</desc>
			<v:userDefs>
				<v:ud v:nameU="State" v:val="VT0(1):26"/>
				<v:ud v:nameU="LostFound" v:val="VT0(0):26"/>
				<v:ud v:nameU="State" v:prompt="" v:val="VT0(2):26"/>
			</v:userDefs>
			<v:textBlock v:margins="rect(4,4,4,4)"/>
			<v:textRect cx="123.9" cy="603" width="102.54" height="17.6036"/>
			<path d="M0 612 L239.52 612" class="st12"/>
			<rect v:rectContext="textBkgnd" x="76.6347" y="598.2" width="92.7186" height="9.59985" class="st14"/>
			<text x="76.63" y="605.4" class="st15" v:langID="1033"><v:paragraph/><v:tabList/>HTTP request for  error page</text>		</g>
		<g id="shape240-312" v:mID="240" v:groupContext="shape" transform="translate(328.8,1058.4) rotate(180)">
			<title>Message (seq.diag).240</title>
			<desc>Error page with link back to RP post_logout_redirect_uri</desc>
			<v:userDefs>
				<v:ud v:nameU="State" v:val="VT0(1):26"/>
				<v:ud v:nameU="LostFound" v:val="VT0(0):26"/>
				<v:ud v:nameU="State" v:prompt="" v:val="VT0(5):26"/>
			</v:userDefs>
			<v:textBlock v:margins="rect(4,4,4,4)"/>
			<v:textRect cx="130.8" cy="617.4" width="192.7" height="17.6036" transform="rotate(180)"/>
			<path d="M0 612 L247.8 612" class="st16"/>
			<rect v:rectContext="textBkgnd" x="-223.149" y="-622.2" width="182.885" height="9.59985" transform="rotate(180)"
					class="st14"/>
			<text x="-223.15" y="-615" transform="rotate(180)" class="st15" v:langID="1033"><v:paragraph/><v:tabList/>Error page with link back to RP post_logout_redirect_uri</text>		</g>
		<g id="shape241-319" v:mID="241" v:groupContext="shape" transform="translate(81,-129.6)">
			<title>Message (seq.diag).241</title>
			<desc>HTTP request for post-logout redirect uri</desc>
			<v:userDefs>
				<v:ud v:nameU="State" v:val="VT0(1):26"/>
				<v:ud v:nameU="LostFound" v:val="VT0(0):26"/>
				<v:ud v:nameU="State" v:prompt="" v:val="VT0(2):26"/>
			</v:userDefs>
			<v:textBlock v:margins="rect(4,4,4,4)"/>
			<v:textRect cx="67.5" cy="603" width="142.26" height="17.6036"/>
			<path d="M0 612 L126.72 612" class="st12"/>
			<rect v:rectContext="textBkgnd" x="0.373917" y="598.2" width="132.44" height="9.59985" class="st14"/>
			<text x="0.37" y="605.4" class="st15" v:langID="1033"><v:paragraph/><v:tabList/>HTTP request for post-logout redirect uri</text>		</g>
		<g id="shape242-326" v:mID="242" v:groupContext="shape" transform="translate(216,1112.4) rotate(180)">
			<title>Message (seq.diag).242</title>
			<desc>RP logout / landing page</desc>
			<v:userDefs>
				<v:ud v:nameU="State" v:val="VT0(1):26"/>
				<v:ud v:nameU="LostFound" v:val="VT0(0):26"/>
				<v:ud v:nameU="State" v:prompt="" v:val="VT0(5):26"/>
			</v:userDefs>
			<v:textBlock v:margins="rect(4,4,4,4)"/>
			<v:textRect cx="67.5" cy="617.4" width="89.2" height="17.6036" transform="rotate(180)"/>
			<path d="M0 612 L135 612" class="st16"/>
			<rect v:rectContext="textBkgnd" x="-108.097" y="-622.2" width="79.382" height="9.59985" transform="rotate(180)"
					class="st14"/>
			<text x="-108.1" y="-615" transform="rotate(180)" class="st15" v:langID="1033"><v:paragraph/><v:tabList/>RP logout / landing page</text>		</g>
	</g>
</svg>
